<svg xmlns="http://www.w3.org/2000/svg" viewBox="0 0 64 64" aria-labelledby="title" aria-describedby="desc" role="img" xmlns:xlink="http://www.w3.org/1999/xlink"><title>Barbecue Icon</title><desc>A color styled Icon from food Pack @ Orion Icon Library</desc><path data-name="layer1" d="M56 26a24 24 0 0 1-48 0v-6h48z" fill="#7c8cb0"></path><path data-name="opacity" d="M53.3 28v-8h-8v12A23.9 23.9 0 0 1 38 49.2a23.9 23.9 0 0 0 6.9-3A23.9 23.9 0 0 0 53.3 28z" fill="#fff" opacity=".25"></path><path data-name="opacity" d="M14 27v-7H8v6a24 24 0 0 0 23.1 24A24 24 0 0 1 14 27z" fill="#101129" opacity=".25"></path><path data-name="stroke" fill="none" stroke="#2f446a" stroke-linecap="round" stroke-linejoin="round" stroke-width="2" d="M16 62l9.3-12.9M48 62l-9-13m17-23a24 24 0 0 1-48 0v-6h48zM8 22H2m60 0h-5.9M32 14V2M18 14V8m28 6V6"></path></svg>