<svg xmlns="http://www.w3.org/2000/svg" viewBox="0 0 64 64" aria-labelledby="title" aria-describedby="desc" role="img" xmlns:xlink="http://www.w3.org/1999/xlink"><title>Champagne Flute Icon</title><desc>A color styled Icon from food Pack @ Orion Icon Library</desc><path data-name="layer2" d="M42 8c0 18.8-4.5 28-10 28S22 26.8 22 8V2h20z" fill="#f9d28c"></path><path data-name="opacity" d="M32.8 34.1C37 31.4 40 22.4 40 7V2h-3v5.7c0 12.7-1.7 21.4-4.2 26.4z" fill="#fff" opacity=".5"></path><path data-name="opacity" d="M26 7.8V2h-4v6c0 18.8 4.5 28 10 28-3.5-3.8-6-13.2-6-28.2z" fill="#101129" opacity=".18"></path><circle data-name="layer1" cx="30" cy="10" r="1" fill="#fff"></circle><circle data-name="layer1" cx="36" cy="14" r="1" fill="#fff"></circle><circle data-name="layer1" cx="30" cy="18" r="1" fill="#fff"></circle><circle data-name="layer1" cx="32" cy="24" r="1" fill="#fff"></circle><path data-name="stroke" fill="none" stroke="#2f446a" stroke-linecap="round" stroke-linejoin="round" stroke-width="2" d="M24 62h16m2-54c0 18.8-4.5 28-10 28S22 26.8 22 8V2h20zM32 36v26"></path><circle data-name="stroke" cx="30" cy="10" r="1" fill="none" stroke="#2f446a" stroke-linecap="round" stroke-linejoin="round" stroke-width="2"></circle><circle data-name="stroke" cx="36" cy="14" r="1" fill="none" stroke="#2f446a" stroke-linecap="round" stroke-linejoin="round" stroke-width="2"></circle><circle data-name="stroke" cx="30" cy="18" r="1" fill="none" stroke="#2f446a" stroke-linecap="round" stroke-linejoin="round" stroke-width="2"></circle><circle data-name="stroke" cx="32" cy="24" r="1" fill="none" stroke="#2f446a" stroke-linecap="round" stroke-linejoin="round" stroke-width="2"></circle></svg>