<svg xmlns="http://www.w3.org/2000/svg" viewBox="0 0 64 64" aria-labelledby="title" aria-describedby="desc" role="img" xmlns:xlink="http://www.w3.org/1999/xlink"><title>Cheese Icon</title><desc>A color styled Icon from food Pack @ Orion Icon Library</desc><path data-name="layer3" d="M2 22v32l60 8v-6.2l-1.5.3a5 5 0 0 1 0-10l1.5.3V30" fill="#fdc20f"></path><circle data-name="layer2" cx="47" cy="38" r="3" fill="#e0a626"></circle><circle data-name="opacity" cx="35" cy="47" r="5" fill="#101129" opacity=".18"></circle><circle data-name="layer2" cx="26.1" cy="36" r="2" fill="#e0a626"></circle><circle data-name="opacity" cx="16" cy="46" r="2" fill="#101129" opacity=".18"></circle><circle data-name="opacity" cx="12" cy="34" r="4" fill="#101129" opacity=".18"></circle><path data-name="layer1" d="M62 30L30 2S2 5.3 2 22l60 8z" fill="#ffde76"></path><circle data-name="stroke" cx="47" cy="38" r="3" fill="none" stroke="#2f446a" stroke-linecap="round" stroke-linejoin="round" stroke-width="2"></circle><circle data-name="stroke" cx="35" cy="47" r="5" fill="none" stroke="#2f446a" stroke-linecap="round" stroke-linejoin="round" stroke-width="2"></circle><circle data-name="stroke" cx="26.1" cy="36" r="2" fill="none" stroke="#2f446a" stroke-linecap="round" stroke-linejoin="round" stroke-width="2"></circle><circle data-name="stroke" cx="16" cy="46" r="2" fill="none" stroke="#2f446a" stroke-linecap="round" stroke-linejoin="round" stroke-width="2"></circle><circle data-name="stroke" cx="12" cy="34" r="4" fill="none" stroke="#2f446a" stroke-linecap="round" stroke-linejoin="round" stroke-width="2"></circle><path data-name="stroke" d="M62 30L30 2S2 5.3 2 22l60 8z" fill="none" stroke="#2f446a" stroke-linecap="round" stroke-linejoin="round" stroke-width="2"></path><path data-name="stroke" d="M2 22v32l60 8v-6.2l-1.5.3a5 5 0 0 1 0-10l1.5.3V30" fill="none" stroke="#2f446a" stroke-linecap="round" stroke-linejoin="round" stroke-width="2"></path></svg>