<svg xmlns="http://www.w3.org/2000/svg" viewBox="0 0 64 64" aria-labelledby="title" aria-describedby="desc" role="img" xmlns:xlink="http://www.w3.org/1999/xlink"><title>Chocolate Bar Icon</title><desc>A color styled Icon from food Pack @ Orion Icon Library</desc><path data-name="layer2" fill="#cdbc5d" d="M1.964 37.963l20.01-20.011 24 24-20.011 20.01z"></path><path data-name="layer3" fill="#9b6c6c" d="M46 42l16-16L38 2 22 18"></path><path data-name="layer2" fill="#cdbc5d" d="M39.3 35.4l-16-5.4V19.4"></path><path data-name="layer1" fill="#dfd795" d="M39.3 35.4l-16-5.4V19.4"></path><path data-name="opacity" fill="#101129" opacity=".18" d="M40 36.1l-20.2-1.2 3.5-14.7V30l16 5.4.7.7z"></path><path data-name="stroke" fill="none" stroke="#2f446a" stroke-linecap="round" stroke-linejoin="round" stroke-width="2" d="M46 10L30 26m24-8L38 34m-8-24l24 24M1.964 37.963l20.01-20.011 24 24-20.011 20.01z"></path><path data-name="stroke" fill="none" stroke="#2f446a" stroke-linecap="round" stroke-linejoin="round" stroke-width="2" d="M46 42l16-16L38 2 22 18m17.3 17.4l-16-5.4V19.4"></path></svg>