<svg xmlns="http://www.w3.org/2000/svg" viewBox="0 0 64 64" aria-labelledby="title" aria-describedby="desc" role="img" xmlns:xlink="http://www.w3.org/1999/xlink"><title>Coffee To Go Icon</title><desc>A color styled Icon from food Pack @ Orion Icon Library</desc><path data-name="layer2" fill="#398e74" d="M10 14h44v8H10z"></path><path data-name="layer3" fill="#fdefe5" d="M14 22l2 40h32l2-40"></path><path data-name="layer2" d="M12 14l2-6h6c3.4 0 18-6 18-6l4 6h6l2.2 6" fill="#398e74"></path><path data-name="opacity" d="M17 14l1-6h-4l-2 6h-2v8h6v-8z" fill="#101129" opacity=".25"></path><path data-name="layer1" d="M48.8 46h-9.9a7.9 7.9 0 0 1-13.8 0h-9.9l-.4-8h10.3a7.9 7.9 0 0 1 13.8 0h10.4z" fill="#c59483"></path><path data-name="opacity" fill="#101129" opacity=".18" d="M16 62h6.9l-.8-16h-6.9l.8 16zm33.9-37l.1-3H14l.8 16h6.9L21 25h28.9z"></path><path data-name="opacity" fill="#101129" opacity=".25" d="M15.2 46h6.9l-.4-8h-6.9l.4 8z"></path><path data-name="opacity" fill="#fff" opacity=".25" d="M42 14h7v8h-7zm3.5 0l-1.6-6H42l-4-6-1.1.5L39 8l.2 6h6.3z"></path><path data-name="stroke" fill="none" stroke="#2f446a" stroke-linecap="round" stroke-linejoin="round" stroke-width="2" d="M10 14h44v8H10zm4 8l2 40h32l2-40m-38-8l2-6h6c3.4 0 18-6 18-6l4 6h6l2.2 6"></path><path data-name="stroke" d="M49.2 38H38.9a7.9 7.9 0 0 0-13.8 0H14.8m.4 8h9.9a7.9 7.9 0 0 0 13.8 0h9.9" fill="none" stroke="#2f446a" stroke-linecap="round" stroke-linejoin="round" stroke-width="2"></path></svg>