<svg xmlns="http://www.w3.org/2000/svg" viewBox="0 0 64 64" aria-labelledby="title" aria-describedby="desc" role="img" xmlns:xlink="http://www.w3.org/1999/xlink"><title>Colander Icon</title><desc>A color styled Icon from food Pack @ Orion Icon Library</desc><path data-name="layer1" d="M56 17a24 24 0 0 1-48 0z" fill="#c4d3e0"></path><path data-name="layer1" d="M41.2 47a10 10 0 0 0-18.3 0z" fill="#c4d3e0"></path><path data-name="opacity" d="M36 40a24 24 0 0 1-24-23H8a24 24 0 0 0 31.8 22.7 24.2 24.2 0 0 1-3.8.3z" fill="#101129" opacity=".25"></path><path data-name="opacity" d="M52 17h-7c0 10.7-4.4 19.7-13 22.8l2.9.2A24 24 0 0 0 52 17z" fill="#fff" opacity=".5"></path><path data-name="opacity" d="M34 42a9.9 9.9 0 0 1 3.4.6A9.9 9.9 0 0 0 32 41a10 10 0 0 0-9.1 6h2.5a10 10 0 0 1 8.6-5z" fill="#101129" opacity=".25"></path><path data-name="stroke" d="M56 17a24 24 0 0 1-48 0z" fill="none" stroke="#2f446a" stroke-linecap="round" stroke-linejoin="round" stroke-width="2"></path><path data-name="stroke" d="M41.1 47a10 10 0 0 0-18.3 0zM8.3 21H2m60 0h-6.3" fill="none" stroke="#2f446a" stroke-linecap="round" stroke-linejoin="round" stroke-width="2"></path><circle data-name="stroke" cx="20" cy="23" r="1" fill="none" stroke="#2f446a" stroke-linecap="round" stroke-linejoin="round" stroke-width="2"></circle><circle data-name="stroke" cx="28" cy="23" r="1" fill="none" stroke="#2f446a" stroke-linecap="round" stroke-linejoin="round" stroke-width="2"></circle><circle data-name="stroke" cx="24" cy="29" r="1" fill="none" stroke="#2f446a" stroke-linecap="round" stroke-linejoin="round" stroke-width="2"></circle><circle data-name="stroke" cx="32" cy="29" r="1" fill="none" stroke="#2f446a" stroke-linecap="round" stroke-linejoin="round" stroke-width="2"></circle><circle data-name="stroke" cx="40" cy="29" r="1" fill="none" stroke="#2f446a" stroke-linecap="round" stroke-linejoin="round" stroke-width="2"></circle><circle data-name="stroke" cx="36" cy="35" r="1" fill="none" stroke="#2f446a" stroke-linecap="round" stroke-linejoin="round" stroke-width="2"></circle><circle data-name="stroke" cx="28" cy="35" r="1" fill="none" stroke="#2f446a" stroke-linecap="round" stroke-linejoin="round" stroke-width="2"></circle><circle data-name="stroke" cx="36" cy="23" r="1" fill="none" stroke="#2f446a" stroke-linecap="round" stroke-linejoin="round" stroke-width="2"></circle><circle data-name="stroke" cx="44" cy="23" r="1" fill="none" stroke="#2f446a" stroke-linecap="round" stroke-linejoin="round" stroke-width="2"></circle></svg>