<svg xmlns="http://www.w3.org/2000/svg" viewBox="0 0 64 64" aria-labelledby="title" aria-describedby="desc" role="img" xmlns:xlink="http://www.w3.org/1999/xlink"><title>Donut Icon</title><desc>A color styled Icon from food Pack @ Orion Icon Library</desc><path data-name="layer1" d="M61.7 28c-4.4.9-6.8-.9-7.7-4-6 1.8-7.1-3.5-6-6-4.5 1.2-8.9-1.9-6-8-3.4-.7-5.7-4.3-3.9-7.4A30.3 30.3 0 1 0 61.7 28zM32 42a10 10 0 1 1 10-10 10 10 0 0 1-10 10z" fill="#de9d63"></path><path data-name="opacity" d="M45 27a10 10 0 0 0-19.7-2.4 10 10 0 0 1 16.4 9.8A10 10 0 0 0 45 27z" fill="#101129" opacity=".25"></path><path data-name="opacity" d="M35 57A30 30 0 0 1 7.9 14.1a30 30 0 1 0 51.2 30.7A30 30 0 0 1 35 57z" fill="#101129" opacity=".25"></path><circle data-name="stroke" cx="32" cy="32" r="10" fill="none" stroke="#2f446a" stroke-linecap="round" stroke-linejoin="round" stroke-width="2"></circle><path data-name="stroke" d="M54 24c-6 1.8-7.1-3.5-6-6-4.5 1.2-8.9-1.9-6-8-3.4-.7-5.7-4.3-3.9-7.4A30.3 30.3 0 1 0 61.7 28c-4.4.8-6.8-1-7.7-4zM28 12l2 2m-8 4l-4 4m-6-4v4m0 8l-2 2m6 4v4m-2 6l2 2m10 2l2 2m10-4l-2 2m10-4v4m1.8-12l4.2 4m4-10v4" fill="none" stroke="#2f446a" stroke-linecap="round" stroke-linejoin="round" stroke-width="2"></path></svg>