<svg xmlns="http://www.w3.org/2000/svg" viewBox="0 0 64 64" aria-labelledby="title" aria-describedby="desc" role="img" xmlns:xlink="http://www.w3.org/1999/xlink"><title>Egg Icon</title><desc>A color styled Icon from food Pack @ Orion Icon Library</desc><path data-name="layer1" d="M54 38c0 16.6-9.8 24-22 24s-22-7.4-22-24S19.8 2 32 2s22 19.4 22 36z" fill="#fff"></path><path data-name="opacity" d="M33.6 53.8c-11.3 0-20.4-6.9-20.4-22.3A47.3 47.3 0 0 1 18 11.3 49.9 49.9 0 0 0 10 38c0 16.6 9.8 24 22 24s22-7.4 22-24c0-1.1 0-2.2-.1-3.4-1.2 13.2-9.8 19.2-20.3 19.2z" fill="#101129" opacity=".18"></path><path data-name="stroke" d="M54 38c0 16.6-9.8 24-22 24s-22-7.4-22-24S19.8 2 32 2s22 19.4 22 36z" fill="none" stroke="#2f446a" stroke-linecap="round" stroke-linejoin="round" stroke-width="2"></path></svg>