<svg xmlns="http://www.w3.org/2000/svg" viewBox="0 0 64 64" aria-labelledby="title" aria-describedby="desc" role="img" xmlns:xlink="http://www.w3.org/1999/xlink"><title>Ice Pop Icon</title><desc>A color styled Icon from food Pack @ Orion Icon Library</desc><path data-name="layer1" d="M44 46V14A12 12 0 0 0 32 2a12 12 0 0 0-12 12v32z" fill="#f0494c"></path><path data-name="opacity" d="M37.3 4.5A5.6 5.6 0 0 1 39 8.8V46h3V14a12 12 0 0 0-4.7-9.5z" fill="#fff" opacity=".4"></path><path data-name="opacity" d="M34 2.2L32 2a12 12 0 0 0-12 12v32h4V14A12 12 0 0 1 34 2.2z" fill="#101129" opacity=".18"></path><path data-name="stroke" d="M44 46V14A12 12 0 0 0 32 2a12 12 0 0 0-12 12v32zM28 14v24m8-24v24m-4 8v16" fill="none" stroke="#2f446a" stroke-linecap="round" stroke-linejoin="round" stroke-width="2"></path></svg>