<svg xmlns="http://www.w3.org/2000/svg" viewBox="0 0 64 64" aria-labelledby="title" aria-describedby="desc" role="img" xmlns:xlink="http://www.w3.org/1999/xlink"><title>Jug Icon</title><desc>A color styled Icon from food Pack @ Orion Icon Library</desc><path data-name="layer1" fill="#f26950" d="M48 14V8l4-6H24v12"></path><path data-name="layer2" d="M52 26v-8a4 4 0 0 0-4-4H24a4 4 0 0 0-4 4v8" fill="#d5e2f4"></path><path data-name="layer1" d="M20 26v32a4 4 0 0 0 4 4h24a4 4 0 0 0 4-4V26z" fill="#f26950"></path><path data-name="opacity" fill="#101129" opacity=".25" d="M30 14V2h-6v12h6z"></path><path data-name="opacity" d="M26 18a4 4 0 0 1 4-4h-6a4 4 0 0 0-4 4v8h6z" fill="#101129" opacity=".18"></path><path data-name="opacity" d="M26 58V26h-6v32a4 4 0 0 0 4 4h6a4 4 0 0 1-4-4z" fill="#101129" opacity=".25"></path><path data-name="opacity" fill="#fff" opacity=".5" d="M37 2h7v12h-7zm0 12h7v12h-7zm0 12h7v36h-7z"></path><path data-name="stroke" fill="none" stroke="#2f446a" stroke-linecap="round" stroke-linejoin="round" stroke-width="2" d="M48 14V8l4-6H24v12m-4 8h-8m0-4v36m40-28v-8a4 4 0 0 0-4-4H24a4 4 0 0 0-4 4v8m0 0v32a4 4 0 0 0 4 4h24a4 4 0 0 0 4-4V26z"></path></svg>