<svg xmlns="http://www.w3.org/2000/svg" viewBox="0 0 64 64" aria-labelledby="title" aria-describedby="desc" role="img" xmlns:xlink="http://www.w3.org/1999/xlink"><title>Juice Jug Icon</title><desc>A color styled Icon from food Pack @ Orion Icon Library</desc><path data-name="layer2" d="M50.1 30c-1.7-3.6-3.1-7-3.1-10 0-8 3.1-13.1 4-14s-4.1-4.3-6.9-4-5 2-11.1 2H21c.3 2.8 2 8 2 16 0 2.2-1.6 5.9-3.3 10" fill="#d5e2f4"></path><path data-name="layer1" d="M19.7 30C17.5 35.2 15 41.2 15 46c0 8.6 5.3 14.4 10 16h20a17.4 17.4 0 0 0 10-16c0-5.7-2.7-11.1-4.9-16z" fill="#f26950"></path><path data-name="opacity" d="M39.1 30h6c-1.9-4.2-3.6-8.2-3.6-11.7 0-8.8 3.2-14.6 4.5-16.1h-1.9a41.3 41.3 0 0 0-4.9 1.3 29.7 29.7 0 0 0-3.7 15c0 3.3 1.7 7.2 3.6 11.5z" fill="#fff" opacity=".5"></path><path data-name="opacity" d="M45.1 30h-6c2.6 5.8 5.7 12.1 5.7 18.7A20.1 20.1 0 0 1 40.2 62H45a13.7 13.7 0 0 0 2-1.1 20.3 20.3 0 0 0 3.8-12.1c0-6.7-3.1-13-5.7-18.8z" fill="#fff" opacity=".5"></path><path data-name="opacity" d="M29 20c0-8-1.7-13.2-2-16h-6c.3 2.8 2 8 2 16 0 2.2-1.6 5.9-3.3 10h6c1.8-4.1 3.3-7.8 3.3-10z" fill="#101129" opacity=".18"></path><path data-name="opacity" d="M21 46c0-4.8 2.5-10.8 4.7-16h-6C17.5 35.2 15 41.2 15 46c0 8.6 5.3 14.4 10 16h6c-4.7-1.6-10-7.4-10-16z" fill="#101129" opacity=".25"></path><path data-name="stroke" d="M21.7 8C15.2 6.1 9 7.5 9 20s7.9 17 7.9 17" fill="none" stroke="#2f446a" stroke-linecap="round" stroke-linejoin="round" stroke-width="2"></path><path data-name="stroke" d="M50.1 30c-1.7-3.6-3.1-7-3.1-10 0-8 3.1-13.1 4-14s-4.1-4.3-6.9-4-5 2-11.1 2H21c.3 2.8 2 8 2 16 0 2.2-1.6 5.9-3.3 10m0 0C17.5 35.2 15 41.2 15 46c0 8.6 5.3 14.4 10 16h20a17.4 17.4 0 0 0 10-16c0-5.7-2.7-11.1-4.9-16z" fill="none" stroke="#2f446a" stroke-linecap="round" stroke-linejoin="round" stroke-width="2"></path></svg>