<svg viewBox="0 0 64 64" xmlns="http://www.w3.org/2000/svg" aria-labelledby="title" aria-describedby="desc" role="img" xmlns:xlink="http://www.w3.org/1999/xlink"><title>Muffin Icon</title><desc>A color styled Icon from food Pack @ Orion Icon Library</desc><path fill="#d5e2f4" d="M21.981 38c-2.775 0-7.788.43-11.467-1.477H10.5s2.57 20.65 2.846 23.057A2.4 2.4 0 0 0 15.982 62h31.9a2.4 2.4 0 0 0 2.631-2.42c.275-2.406 2.885-23.373 2.885-23.373h-.022A14.839 14.839 0 0 1 46.046 38z" data-name="layer2"></path><path fill="#854a4a" d="M31.982 2c-13.686 0-26 14.738-26 26 0 4.664 1.934 7.176 4.533 8.523C14.192 38.43 19.205 38 21.981 38h24.065a14.839 14.839 0 0 0 7.326-1.793A9.2 9.2 0 0 0 57.981 28c.219-7.152-7.473-26-25.999-26z" data-name="layer1"></path><path opacity=".25" fill="#101129" d="M51.048 35H26.984c-2.775 0-7.789.43-11.467-1.476-2.6-1.348-4.533-3.859-4.533-8.524 0-7.117 4.922-15.619 12-20.916-9.65 4.453-17 15.219-17 23.918 0 4.664 1.934 7.176 4.533 8.523C14.192 38.43 19.205 38 21.981 38h24.065a14.839 14.839 0 0 0 7.326-1.793 9.381 9.381 0 0 0 2.259-1.842 16.516 16.516 0 0 1-4.583.635z" data-name="opacity"></path><path opacity=".18" fill="#101129" d="M53.406 36.207A14.836 14.836 0 0 1 46.08 38H22.016c-2.775 0-7.789.43-11.467-1.477h-.01s2.57 20.65 2.846 23.057A2.4 2.4 0 0 0 16.016 62h5.248l-1.85-19.82H44.58c5.149 0 7.627-2.814 8.675-4.58l.173-1.393z" data-name="opacity"></path><path stroke-width="2" stroke-linejoin="round" stroke-linecap="round" stroke="#2f446a" fill="none" d="M32.015 2c-13.685 0-26 14.738-26 26s11.262 10 16 10h24.064c4.842 0 11.685-2 11.935-10 .223-7.152-7.472-26-25.999-26zm-12 18.022l-1.989 1.988m13.979-1.988l-1.988 1.988m-2.006-10l-1.988 1.988m13.978-1.988l-1.988 1.988m5.992 6.024l-1.988 1.988" data-name="stroke"></path><path stroke-width="2" stroke-linejoin="round" stroke-linecap="round" stroke="#2f446a" fill="none" d="M10.539 36.523s2.569 20.65 2.845 23.057A2.4 2.4 0 0 0 16.015 62h31.9a2.4 2.4 0 0 0 2.631-2.42c.275-2.406 2.885-23.373 2.885-23.373M20.015 46l1.562 16m22.438-16l-1.563 16M32.015 46v16" data-name="stroke"></path></svg>