<svg xmlns="http://www.w3.org/2000/svg" viewBox="0 0 64 64" aria-labelledby="title" aria-describedby="desc" role="img" xmlns:xlink="http://www.w3.org/1999/xlink"><title>Mushroom Slice Icon</title><desc>A color styled Icon from food Pack @ Orion Icon Library</desc><path data-name="layer1" d="M32 9C17.8 9 2 15.2 2 33c0 13.7 8.5 14 9.5 14 4 0 6.5-2.8 6.5-6s-2.5-6-5-6c3-4 9-4.2 9 0v14c0 2.7 1.1 6 6 6h8c4.9 0 6-3.3 6-6V35c0-4.2 6-4 9 0-2.5 0-5 1.8-5 6s2.5 6 6.5 6c1 0 9.5-.3 9.5-14C62 15.2 46.2 9 32 9z" fill="#fdefe5"></path><path data-name="opacity" d="M32 9C17.8 9 2 15.2 2 33c0 13.7 8.5 14 9.5 14 4 0 6.5-2.8 6.5-6s-2.5-6-5-6c3-4 9-4.2 9 0v14c0 2.7 1.1 6 6 6h4V9z" fill="#101129" opacity=".18"></path><path data-name="stroke" d="M32 9C17.8 9 2 15.2 2 33c0 13.7 8.5 14 9.5 14 4 0 6.5-2.8 6.5-6s-2.5-6-5-6c3-4 9-4.2 9 0v14c0 2.7 1.1 6 6 6h8c4.9 0 6-3.3 6-6V35c0-4.2 6-4 9 0-2.5 0-5 1.8-5 6s2.5 6 6.5 6c1 0 9.5-.3 9.5-14C62 15.2 46.2 9 32 9z" fill="none" stroke="#2f446a" stroke-linecap="round" stroke-linejoin="round" stroke-width="2"></path></svg>