<svg xmlns="http://www.w3.org/2000/svg" viewBox="0 0 64 64" aria-labelledby="title" aria-describedby="desc" role="img" xmlns:xlink="http://www.w3.org/1999/xlink"><title>Pineapple Icon</title><desc>A color styled Icon from food Pack @ Orion Icon Library</desc><path data-name="layer2" d="M50 41c0 11.6-6 21-18 21s-18-9.4-18-21 6-21 18-21 18 9.4 18 21z" fill="#fbad18"></path><path data-name="opacity" d="M35 58c-12 0-18-9.4-18-21a25.6 25.6 0 0 1 2.9-12.4C16 28.5 14 34.4 14 41c0 11.6 6 21 18 21 7.2 0 12.2-3.4 15.1-8.6A16.7 16.7 0 0 1 35 58z" fill="#101129" opacity=".18"></path><path data-name="layer1" d="M32 18c-12 0-13.6-8-13.6-8S32 8.2 32 18M46 2C34.6 2 34 12 34 18 46.7 18 46 7.1 46 2z" fill="#68963f"></path><path data-name="stroke" d="M50 41c0 11.6-6 21-18 21s-18-9.4-18-21 6-21 18-21 18 9.4 18 21zM32 18c-12 0-13.6-8-13.6-8S32 8.2 32 18M46 2C34.6 2 34 12 34 18 46.7 18 46 7.1 46 2zM17.9 27.9l27.3 27.3M14 40l21.6 21.6m-8.9-40.9l23.1 23.1m-3.8-16L18.7 55.1M50 39.9L28.3 61.6M37 20.8L14.1 43.7" fill="none" stroke="#2f446a" stroke-linecap="round" stroke-linejoin="round" stroke-width="2"></path></svg>