<svg xmlns="http://www.w3.org/2000/svg" viewBox="0 0 64 64" aria-labelledby="title" aria-describedby="desc" role="img" xmlns:xlink="http://www.w3.org/1999/xlink"><title>Potato Masher Icon</title><desc>A color styled Icon from food Pack @ Orion Icon Library</desc><path data-name="layer1" d="M8.9 60.8a4.1 4.1 0 0 1-5.7 0 4.1 4.1 0 0 1 0-5.7l14.3-14.4a4.1 4.1 0 0 1 5.7 0 4.1 4.1 0 0 1 0 5.7z" fill="#f26950"></path><path data-name="opacity" d="M23.4 40.9a4 4 0 0 1-1.2 2.5L7.9 57.8a4.1 4.1 0 0 1-5.7 0l-.2-.2a4 4 0 0 0 6.9 3.2l14.4-14.3a4 4 0 0 0 .1-5.6z" fill="#101129" opacity=".25"></path><path data-name="stroke" d="M8.9 60.8a4.1 4.1 0 0 1-5.7 0 4.1 4.1 0 0 1 0-5.7l14.3-14.4a4.1 4.1 0 0 1 5.7 0 4.1 4.1 0 0 1 0 5.7zm14.4-20.1L39 25M36.2 4.9l22.9 22.9M34.7 12L52 29.3M33.3 19.2l11.5 11.5M43.4 3.4l17.2 17.2M50.5 2L62 13.5" fill="none" stroke="#2f446a" stroke-linecap="round" stroke-linejoin="round" stroke-width="2"></path></svg>