<svg xmlns="http://www.w3.org/2000/svg" viewBox="0 0 64 64" aria-labelledby="title" aria-describedby="desc" role="img" xmlns:xlink="http://www.w3.org/1999/xlink"><title>Sandwich Icon</title><desc>A color styled Icon from food Pack @ Orion Icon Library</desc><path data-name="layer5" d="M32.1 2c-12.6 0-30 1.9-30 12s8 8.5 8 8.5V51a5 5 0 0 0 5 5h34a5 5 0 0 0 5-5V22.4s8-.3 8-8.4-7.7-12-30-12z" fill="#f9cb9a"></path><path data-name="layer4" fill="#fdc20f" d="M10.1 22.5L2.1 46l8 4"></path><path data-name="layer3" d="M14.1 56a6 6 0 0 0 11.6 2.2A5 5 0 0 0 35 57a6 6 0 0 0 10.7-1" fill="#68963f"></path><path data-name="layer2" d="M54.1 26.2a10 10 0 0 1 0 19.6" fill="#f16262"></path><circle data-name="layer1" cx="19.1" cy="15" r="1" fill="#de9d63"></circle><circle data-name="layer1" cx="27.1" cy="27" r="1" fill="#de9d63"></circle><circle data-name="layer1" cx="44.1" cy="20" r="2" fill="#de9d63"></circle><circle data-name="layer1" cx="42.1" cy="38" r="2" fill="#de9d63"></circle><circle data-name="layer1" cx="25.1" cy="45" r="1" fill="#de9d63"></circle><path data-name="stroke" d="M31.9 2c-12.6 0-30 1.9-30 12s8 8.5 8 8.5V51a5 5 0 0 0 5 5h34a5 5 0 0 0 5-5V22.4s8-.3 8-8.4-7.6-12-30-12z" fill="none" stroke="#2f446a" stroke-linecap="round" stroke-linejoin="round" stroke-width="2"></path><path data-name="stroke" fill="none" stroke="#2f446a" stroke-linecap="round" stroke-linejoin="round" stroke-width="2" d="M9.9 22.5L1.9 46l8 4m4 6a6 6 0 0 0 11.6 2.2 5 5 0 0 0 9.3-1.2 6 6 0 0 0 10.8-1m8.3-29.8a10 10 0 0 1 0 19.6"></path><circle data-name="stroke" cx="18.9" cy="15" r="1" fill="none" stroke="#2f446a" stroke-linecap="round" stroke-linejoin="round" stroke-width="2"></circle><circle data-name="stroke" cx="26.9" cy="27" r="1" fill="none" stroke="#2f446a" stroke-linecap="round" stroke-linejoin="round" stroke-width="2"></circle><circle data-name="stroke" cx="43.9" cy="20" r="2" fill="none" stroke="#2f446a" stroke-linecap="round" stroke-linejoin="round" stroke-width="2"></circle><circle data-name="stroke" cx="41.9" cy="38" r="2" fill="none" stroke="#2f446a" stroke-linecap="round" stroke-linejoin="round" stroke-width="2"></circle><circle data-name="stroke" cx="24.9" cy="45" r="1" fill="none" stroke="#2f446a" stroke-linecap="round" stroke-linejoin="round" stroke-width="2"></circle></svg>