<svg xmlns="http://www.w3.org/2000/svg" viewBox="0 0 64 64" aria-labelledby="title" aria-describedby="desc" role="img" xmlns:xlink="http://www.w3.org/1999/xlink"><title>Spirit Glass Icon</title><desc>A color styled Icon from food Pack @ Orion Icon Library</desc><path data-name="layer2" d="M53.9 28C53.1 17 46 2 46 2H18s-7.1 14.3-7.9 26" fill="#d5e2f4"></path><path data-name="layer1" d="M10.1 28c0 .7-.1 1.4-.1 2 0 11.1 10.1 16 22 16s22-4.9 22-16c0-.7 0-1.3-.1-2z" fill="#a41d34"></path><path data-name="opacity" d="M48.8 28C48 17 40.9 2 40.9 2h-6.4c1.5 4.7 5.1 16.9 6.6 26zm-7 5c.1.7.1 1.4.1 2a14 14 0 0 1-2.9 8.9c5.9-2.4 9.9-6.9 9.9-13.9 0-.7 0-1.3-.1-2h-7.6c.3 1.8.5 3.5.6 5z" fill="#fff" opacity=".5"></path><path data-name="opacity" d="M26 2h-7.9S11 16.3 10.2 28h9.1C20.1 19.3 24 7.5 26 2z" fill="#101129" opacity=".18"></path><path data-name="opacity" d="M19.1 31c0-.7 0-1.3.1-2v-1h-9.1c0 .7-.1 1.4-.1 2 0 11.1 10.1 16 22 16h.3c-7.7-1.9-13.2-6.8-13.2-15z" fill="#101129" opacity=".25"></path><path data-name="stroke" fill="none" stroke="#2f446a" stroke-linecap="round" stroke-linejoin="round" stroke-width="2" d="M20 62h24M32 46v16m21.9-34C53.1 17 46 2 46 2H18s-7.1 14.3-7.9 26m0 0c0 .7-.1 1.4-.1 2 0 11.1 10.1 16 22 16s22-4.9 22-16c0-.7 0-1.3-.1-2z"></path></svg>