<svg xmlns="http://www.w3.org/2000/svg" viewBox="0 0 64 64" aria-labelledby="title" aria-describedby="desc" role="img" xmlns:xlink="http://www.w3.org/1999/xlink"><title>Stock Pot Icon</title><desc>A color styled Icon from food Pack @ Orion Icon Library</desc><path data-name="layer2" d="M11 24H3a2 2 0 0 1-2-2 2 2 0 0 1 2-2h8" fill="#99b0bf"></path><path data-name="opacity" d="M11 24H3a2 2 0 0 1-2-2 2 2 0 0 1 2-2h8" fill="#101129" opacity=".25"></path><path data-name="layer1" d="M53 10v46a6 6 0 0 1-6 6H17a6 6 0 0 1-6-6V10z" fill="#c4d3e0"></path><path data-name="opacity" d="M16 56V13h37v-3H11v46a6 6 0 0 0 6 6h5a6 6 0 0 1-6-6z" fill="#101129" opacity=".25"></path><path data-name="layer1" d="M53 24h8a2 2 0 0 0 2-2 2 2 0 0 0-2-2h-8" fill="#c4d3e0"></path><path data-name="opacity" fill="#fff" opacity=".5" d="M35 13h11v49H35z"></path><path data-name="stroke" d="M53 10v46a6 6 0 0 1-6 6H17a6 6 0 0 1-6-6V10m-4 0h50m-33.9 0A9 9 0 0 1 41 10M11 24H3a2 2 0 0 1-2-2 2 2 0 0 1 2-2h8m42 4h8a2 2 0 0 0 2-2 2 2 0 0 0-2-2h-8" fill="none" stroke="#2f446a" stroke-linecap="round" stroke-linejoin="round" stroke-width="2"></path></svg>