<svg xmlns="http://www.w3.org/2000/svg" viewBox="0 0 64 64" aria-labelledby="title" aria-describedby="desc" role="img" xmlns:xlink="http://www.w3.org/1999/xlink"><title>Sushi Restaurant Icon</title><desc>A color styled Icon from food Pack @ Orion Icon Library</desc><ellipse data-name="layer3" cx="28" cy="24" rx="12" ry="8" fill="#fff4e8"></ellipse><path data-name="layer2" d="M28 32c-6.6 0-12-3.6-12-8v18c0 4.4 5.4 8 12 8s12-3.6 12-8V24c0 4.4-5.4 8-12 8z" fill="#4c5e7d"></path><ellipse data-name="layer1" cx="28" cy="24" rx="4" ry="1" fill="#f26950"></ellipse><path data-name="opacity" d="M22 30.9c-3.6-1.4-6-4-6-6.9v18c0 3 2.4 5.5 6 6.9v-3.4l18-6.3v-3.9l-18 6z" fill="#101129" opacity=".25"></path><path data-name="stroke" fill="none" stroke="#2f446a" stroke-linecap="round" stroke-linejoin="round" stroke-width="2" d="M62 28L2 48m36.6-27.8L50 14M2 40l14-7.6"></path><ellipse data-name="stroke" cx="28" cy="24" rx="12" ry="8" fill="none" stroke="#2f446a" stroke-linecap="round" stroke-linejoin="round" stroke-width="2"></ellipse><path data-name="stroke" d="M16 24v18c0 4.4 5.4 8 12 8s12-3.6 12-8V24" fill="none" stroke="#2f446a" stroke-linecap="round" stroke-linejoin="round" stroke-width="2"></path><ellipse data-name="stroke" cx="28" cy="24" rx="4" ry="1" fill="none" stroke="#2f446a" stroke-linecap="round" stroke-linejoin="round" stroke-width="2"></ellipse></svg>