<?xml version="1.0" encoding="utf-8"?>
<!-- Generator: Adobe Illustrator 17.0.0, SVG Export Plug-In . SVG Version: 6.00 Build 0)  -->
<!DOCTYPE svg PUBLIC "-//W3C//DTD SVG 1.1//EN" "http://www.w3.org/Graphics/SVG/1.1/DTD/svg11.dtd">
<svg version="1.1" id="Icons" xmlns="http://www.w3.org/2000/svg" xmlns:xlink="http://www.w3.org/1999/xlink" x="0px" y="0px"
	 width="150" height="150" viewBox="300.298 22.158 8.668 5.134" enable-background="new 300.298 22.158 8.668 5.134"
	 xml:space="preserve">
<g>
	<g>
		<path fill="#333333" d="M304.076,22.909c-0.12,0.183-0.195,0.429-0.197,0.701c0,0.003,0,0.006,0,0.008c0,0.001,0,0.001,0,0.002
			c0,0.001,0,0.003,0,0.004c0,0.014,0.001,0.028,0.002,0.042c-0.809-0.201-1.493-0.718-1.913-1.414
			c-0.96,0.777-1.575,1.965-1.575,3.297c0,0.002,0,0.003,0,0.004c0.158-0.336,0.499-0.57,0.895-0.57
			c0.396,0,0.736,0.233,0.894,0.568c0.129-0.062,0.273-0.097,0.425-0.097c0.431,0,0.796,0.276,0.932,0.66c0.003,0,0.007,0,0.01,0
			c0.598,0,1.084,0.485,1.084,1.084c0-0.598,0.485-1.084,1.084-1.084c0.003,0,0.007,0,0.01,0c0.136-0.384,0.501-0.66,0.932-0.66
			c0.152,0,0.296,0.035,0.425,0.097c0.158-0.335,0.499-0.568,0.894-0.568c0.396,0,0.737,0.233,0.895,0.57c0-0.002,0-0.003,0-0.004
			c0-1.332-0.615-2.52-1.575-3.297c-0.419,0.695-1.103,1.212-1.911,1.413c0,0-0.001,0-0.002,0c0-0.014,0.002-0.028,0.002-0.042
			c0-0.001,0-0.003,0-0.004c0-0.001,0-0.001,0-0.002c0-0.003,0-0.006,0-0.008c-0.003-0.272-0.077-0.518-0.197-0.701l-0.171,0.183
			c-0.113-0.055-0.244-0.086-0.385-0.086s-0.272,0.032-0.385,0.086L304.076,22.909z"/>
	</g>
	<g>
		<circle fill="#CC0000" cx="304.349" cy="23.477" r="0.094"/>
		<circle fill="#CC0000" cx="304.915" cy="23.477" r="0.094"/>
	</g>
	<g>
		<path d="M304.632,27.293c-0.052,0-0.094-0.042-0.094-0.094c0-0.546-0.444-0.989-0.989-0.989c-0.04,0.002-0.085-0.024-0.099-0.062
			c-0.126-0.357-0.465-0.597-0.843-0.597c-0.133,0-0.262,0.029-0.384,0.088c-0.023,0.011-0.049,0.012-0.072,0.004
			c-0.024-0.008-0.043-0.026-0.054-0.049c-0.147-0.312-0.465-0.514-0.809-0.514c-0.345,0-0.663,0.202-0.81,0.516
			c-0.019,0.04-0.063,0.062-0.106,0.052c-0.043-0.01-0.074-0.048-0.074-0.092c0-1.318,0.587-2.547,1.61-3.375
			c0.021-0.017,0.049-0.024,0.076-0.02c0.027,0.005,0.05,0.021,0.064,0.044c0.389,0.646,1.018,1.129,1.738,1.34
			c0.013-0.255,0.087-0.497,0.211-0.686c0.016-0.024,0.042-0.04,0.071-0.042c0.029-0.003,0.057,0.008,0.077,0.029l0.126,0.135
			c0.226-0.089,0.497-0.089,0.723,0l0.126-0.135c0.02-0.021,0.048-0.033,0.077-0.029c0.029,0.002,0.055,0.018,0.071,0.042
			c0.124,0.189,0.198,0.43,0.211,0.686c0.72-0.211,1.35-0.694,1.738-1.339c0.014-0.023,0.038-0.039,0.064-0.044
			c0.027-0.005,0.054,0.002,0.076,0.02c1.023,0.828,1.61,2.056,1.61,3.37c0,0.044-0.031,0.085-0.074,0.094
			c-0.043,0.01-0.087-0.01-0.106-0.05c-0.147-0.313-0.465-0.516-0.81-0.516c-0.344,0-0.662,0.202-0.809,0.514
			c-0.011,0.023-0.03,0.04-0.054,0.049c-0.023,0.008-0.049,0.007-0.072-0.004c-0.122-0.058-0.251-0.088-0.384-0.088
			c-0.378,0-0.717,0.24-0.843,0.597c-0.013,0.038-0.049,0.063-0.089,0.063c-0.001,0-0.002,0-0.003,0
			c-0.001,0-0.009-0.001-0.01-0.001c-0.543,0-0.987,0.444-0.987,0.989C304.726,27.251,304.684,27.293,304.632,27.293z
			 M303.603,26.022c0.462,0.021,0.856,0.31,1.029,0.715c0.173-0.405,0.567-0.694,1.029-0.715c0.169-0.398,0.561-0.661,0.997-0.661
			c0.131,0,0.259,0.024,0.382,0.07c0.192-0.332,0.551-0.541,0.937-0.541c0.302,0,0.587,0.128,0.789,0.342
			c-0.084-1.103-0.6-2.118-1.446-2.839c-0.439,0.674-1.129,1.168-1.909,1.363c-0.003,0.001-0.005,0.002-0.008,0.002
			c-0.028,0.005-0.057-0.002-0.079-0.02c-0.022-0.018-0.034-0.046-0.034-0.075l0.001-0.019c0-0.007,0.001-0.014,0.001-0.021
			c0-0.002,0-0.009,0-0.011c-0.002-0.2-0.045-0.389-0.122-0.546l-0.084,0.09c-0.028,0.03-0.073,0.039-0.11,0.021
			c-0.209-0.101-0.479-0.101-0.687,0c-0.037,0.018-0.082,0.01-0.11-0.021l-0.084-0.09c-0.077,0.158-0.12,0.346-0.122,0.544
			c0,0.002,0,0.009-0.001,0.011c0,0.01,0,0.016,0.001,0.023l0.001,0.019c0.001,0.029-0.012,0.057-0.035,0.076
			c-0.023,0.018-0.053,0.025-0.082,0.018c-0.782-0.194-1.473-0.689-1.912-1.364c-0.847,0.722-1.363,1.738-1.446,2.839
			c0.202-0.214,0.487-0.343,0.789-0.343c0.386,0,0.745,0.21,0.937,0.541c0.123-0.047,0.251-0.07,0.382-0.07
			C303.042,25.361,303.434,25.624,303.603,26.022z"/>
	</g>
</g>
</svg>
