<?xml version="1.0" encoding="utf-8"?>
<!-- Generator: Adobe Illustrator 17.0.0, SVG Export Plug-In . SVG Version: 6.00 Build 0)  -->
<!DOCTYPE svg PUBLIC "-//W3C//DTD SVG 1.1//EN" "http://www.w3.org/Graphics/SVG/1.1/DTD/svg11.dtd">
<svg version="1.1" id="Icons" xmlns="http://www.w3.org/2000/svg" xmlns:xlink="http://www.w3.org/1999/xlink" x="0px" y="0px"
	 width="50px" height="50px" viewBox="134.317 173.611 662.591 202.94"
	 enable-background="new 134.317 173.611 662.591 202.94" xml:space="preserve">
<path fill="#E5E2AC" d="M273.348,322.086c-14.857,0.02-29.118,7.06-37.64,19.239c-9.69,13.818-26.699,22.088-45.42,19.308
	c-20.301-3.072-36.526-19.835-39.129-40.187c-2.366-18.713,6.384-35.571,20.525-44.95c-14.167-9.338-22.908-26.231-20.652-44.891
	c2.485-20.418,18.722-37.169,39.014-40.297c18.712-2.835,35.745,5.388,45.475,19.18c8.616,12.213,22.839,19.153,37.695,19.131
	l386.035-0.547c14.857-0.02,29.118-7.06,37.64-19.239c9.69-13.818,26.699-22.088,45.42-19.308
	c20.301,3.072,36.526,19.835,39.129,40.187c2.366,18.713-6.384,35.571-20.525,44.95c14.167,9.338,22.908,26.231,20.652,44.891
	c-2.485,20.418-18.722,37.169-39.014,40.297c-18.712,2.835-35.745-5.388-45.475-19.18c-8.616-12.213-22.839-19.153-37.695-19.131"/>
<path d="M796.347,322.131c2.117-17.195-2.788-33.926-13.133-46.858c10.536-13.095,15.342-29.82,13.189-46.843
	c-3.376-27.492-24.829-49.556-52.199-53.784c-20.001-3.054-39.542,3.369-53.646,17.456c-2.517,2.514-4.799,5.261-6.848,8.125
	c-0.937,1.287-1.99,2.572-3.16,3.741c-5.619,5.612-13.574,8.881-21.822,8.819l-130.668-0.078l-0.017,15.676l130.791,0.079
	c12.399,0.008,24.217-4.781,32.821-13.374c1.756-1.754,3.395-3.742,4.858-5.788c1.581-2.164,3.278-4.209,5.151-6.08
	c10.007-9.995,24.517-15.486,40.366-13.078c20.177,2.995,36.369,19.792,38.93,40.148c1.92,15.268-3.586,29.302-13.3,39.004
	c-2.224,2.221-4.624,4.151-7.257,5.962c14.148,9.368,22.854,26.275,20.561,44.933c-1.293,10.411-6.211,19.883-13.411,27.073
	c-6.848,6.84-15.8,11.572-25.685,13.145c-18.718,2.796-35.734-5.461-45.435-19.271c-8.59-12.23-22.8-19.198-37.656-19.208
	l-128.995-0.078c-0.612,0.121-1.225,0.199-1.84,0.245l-0.017,15.37l130.668,0.078c10.06,0.006,19.416,4.69,24.967,12.591
	c13.674,19.428,36.891,29.208,60.522,25.713c12.811-1.923,25.039-8.173,34.403-17.526
	C788.318,348.505,794.643,335.641,796.347,322.131z"/>
<path d="M512.379,315.59"/>
<path d="M512.432,228.318"/>
<path d="M528.06,212.708"/>
<path d="M393.02,212.581"/>
<path d="M539.75,321.725l-267.183,0.031c-12.399-0.008-24.217,4.781-32.821,13.374c-1.756,1.754-3.395,3.742-4.858,5.788
	c-1.581,2.164-3.278,4.209-5.151,6.08c-10.007,9.995-24.517,15.486-40.366,13.078c-20.294-3.112-36.486-19.909-39.047-40.265
	c-1.92-15.268,3.586-29.302,13.3-39.004c2.224-2.221,4.624-4.151,7.257-5.962c-14.148-9.368-22.854-26.275-20.561-44.933
	c1.293-10.411,6.211-19.883,13.411-27.074c6.848-6.84,15.8-11.572,25.685-13.145c18.718-2.796,35.734,5.461,45.435,19.271
	c8.59,12.23,22.8,19.198,37.656,19.208l263.484,0.214l0.017-15.676l-263.377-0.094c-10.06-0.006-19.416-4.69-24.967-12.591
	c-13.674-19.428-36.89-29.208-60.522-25.713c-12.811,1.923-25.039,8.173-34.403,17.526c-9.832,9.82-16.157,22.685-17.862,36.195
	c-2.116,17.195,2.788,33.926,13.133,46.858c-10.536,13.095-15.342,29.82-13.188,46.843c3.376,27.492,24.829,49.556,52.199,53.784
	c20.001,3.054,39.542-3.369,53.646-17.456c2.517-2.514,4.799-5.261,6.848-8.126c0.937-1.287,1.99-2.572,3.16-3.741
	c5.619-5.612,13.574-8.882,21.822-8.819l262.495,0.22l0.017-15.37"/>
</svg>
