<?xml version="1.0" encoding="utf-8"?>
<!-- Generator: Adobe Illustrator 17.0.0, SVG Export Plug-In . SVG Version: 6.00 Build 0)  -->
<!DOCTYPE svg PUBLIC "-//W3C//DTD SVG 1.1//EN" "http://www.w3.org/Graphics/SVG/1.1/DTD/svg11.dtd">
<svg version="1.1" id="Icons" xmlns="http://www.w3.org/2000/svg" xmlns:xlink="http://www.w3.org/1999/xlink" x="0px" y="0px"
	  viewBox="311.61 21.081 6.772 6.77" enable-background="new 311.61 21.081 6.772 6.77"
	 xml:space="preserve">
<g>
	<path fill="#E5E2AC" d="M317.046,25.717c0.127,0.127,0.309,0.189,0.486,0.158c0.201-0.035,0.417,0.04,0.553,0.224
		c0.147,0.2,0.142,0.482-0.01,0.678c-0.14,0.18-0.359,0.249-0.56,0.208c0.041,0.201-0.029,0.42-0.208,0.56
		c-0.196,0.153-0.478,0.157-0.678,0.01c-0.184-0.136-0.259-0.352-0.224-0.553c0.031-0.178-0.031-0.359-0.158-0.486l-3.3-3.3
		c-0.127-0.127-0.309-0.189-0.486-0.158c-0.201,0.035-0.417-0.04-0.553-0.224c-0.147-0.2-0.142-0.482,0.01-0.678
		c0.14-0.18,0.359-0.249,0.56-0.208c-0.041-0.201,0.029-0.42,0.208-0.56c0.196-0.153,0.478-0.157,0.678-0.01
		c0.184,0.136,0.259,0.352,0.224,0.553c-0.031,0.178,0.031,0.359,0.158,0.486L317.046,25.717z"/>
	
		<rect x="314.763" y="24.232" transform="matrix(0.7071 -0.7071 0.7071 0.7071 74.8232 230.2334)" opacity="0.1" enable-background="new    " width="1.131" height="1.131"/>
	<path fill="#E5E2AC" d="M316.247,22.416c0.127-0.127,0.189-0.309,0.158-0.486c-0.035-0.201,0.04-0.417,0.224-0.553
		c0.2-0.147,0.482-0.142,0.678,0.01c0.18,0.14,0.249,0.359,0.208,0.56c0.201-0.041,0.42,0.029,0.56,0.208
		c0.153,0.196,0.157,0.478,0.01,0.678c-0.136,0.184-0.352,0.259-0.553,0.224c-0.178-0.031-0.359,0.031-0.486,0.158l-3.3,3.3
		c-0.127,0.127-0.189,0.309-0.158,0.486c0.035,0.201-0.04,0.417-0.224,0.553c-0.2,0.147-0.482,0.142-0.678-0.01
		c-0.18-0.14-0.249-0.359-0.208-0.56c-0.201,0.041-0.42-0.029-0.56-0.208c-0.153-0.196-0.157-0.478-0.01-0.678
		c0.136-0.184,0.352-0.259,0.553-0.224c0.178,0.031,0.359-0.031,0.486-0.158L316.247,22.416z"/>
	<path d="M318.237,25.987c-0.145-0.197-0.367-0.309-0.608-0.309c-0.043,0-0.086,0.004-0.128,0.011
		c-0.019,0.003-0.039,0.005-0.059,0.005c-0.096,0-0.192-0.04-0.262-0.111l-1.117-1.117l1.117-1.117
		c0.07-0.07,0.166-0.111,0.262-0.111c0.02,0,0.04,0.002,0.059,0.005c0.042,0.007,0.085,0.011,0.128,0.011
		c0.242,0,0.464-0.113,0.608-0.309c0.198-0.269,0.193-0.642-0.013-0.906c-0.127-0.163-0.311-0.266-0.513-0.288
		c-0.022-0.199-0.123-0.385-0.288-0.513c-0.13-0.101-0.294-0.157-0.462-0.157c-0.16,0-0.317,0.051-0.444,0.144
		c-0.233,0.171-0.347,0.454-0.298,0.737c0.02,0.115-0.02,0.235-0.106,0.321l-1.117,1.117l-1.117-1.117
		c-0.086-0.086-0.126-0.206-0.106-0.321c0.049-0.283-0.066-0.565-0.298-0.737c-0.126-0.093-0.284-0.144-0.444-0.144
		c-0.168,0-0.332,0.056-0.462,0.157c-0.165,0.129-0.266,0.314-0.288,0.513c-0.202,0.022-0.386,0.124-0.513,0.288
		c-0.206,0.264-0.211,0.636-0.013,0.906c0.145,0.197,0.367,0.309,0.608,0.309c0.043,0,0.086-0.004,0.128-0.011
		c0.019-0.003,0.039-0.005,0.059-0.005c0.096,0,0.192,0.04,0.262,0.111l1.117,1.117l-1.117,1.117
		c-0.07,0.07-0.166,0.111-0.262,0.111c-0.02,0-0.04-0.002-0.059-0.005c-0.042-0.007-0.085-0.011-0.128-0.011
		c-0.242,0-0.464,0.113-0.608,0.309c-0.198,0.269-0.193,0.641,0.013,0.906c0.128,0.163,0.311,0.266,0.513,0.288
		c0.022,0.199,0.123,0.385,0.288,0.513c0.13,0.101,0.294,0.157,0.462,0.157c0.16,0,0.317-0.051,0.444-0.144
		c0.233-0.171,0.347-0.454,0.298-0.737c-0.02-0.115,0.02-0.235,0.106-0.321l1.117-1.117l1.117,1.117
		c0.086,0.086,0.126,0.206,0.106,0.321c-0.049,0.283,0.066,0.565,0.298,0.737c0.126,0.093,0.284,0.144,0.444,0.144
		c0.168,0,0.332-0.056,0.462-0.157c0.165-0.129,0.266-0.314,0.288-0.513c0.202-0.022,0.386-0.124,0.513-0.288
		C318.43,26.629,318.435,26.257,318.237,25.987z M315.796,24.466l-0.799,0.799l0,0l-1.25,1.25c-0.048,0.048-0.086,0.103-0.114,0.163
		c-0.046,0.1-0.063,0.212-0.044,0.323c0.013,0.075,0.011,0.153-0.007,0.228c-0.024,0.099-0.075,0.194-0.153,0.271
		c-0.02,0.019-0.041,0.038-0.064,0.054c-0.097,0.072-0.215,0.107-0.332,0.107c-0.123,0-0.246-0.039-0.346-0.117
		c-0.045-0.035-0.083-0.075-0.114-0.118c-0.093-0.13-0.125-0.291-0.094-0.442c-0.037,0.008-0.075,0.011-0.113,0.011
		c-0.167,0-0.333-0.073-0.447-0.22c-0.057-0.073-0.094-0.159-0.109-0.248c-0.026-0.148,0.007-0.305,0.099-0.43
		c0.014-0.019,0.029-0.038,0.045-0.055c0.112-0.119,0.261-0.178,0.411-0.178c0.032,0,0.064,0.003,0.096,0.008
		c0.03,0.005,0.061,0.008,0.091,0.008c0.147,0,0.29-0.06,0.395-0.166l3.3-3.3c0.064-0.064,0.111-0.141,0.138-0.224
		c0.021-0.063,0.03-0.129,0.027-0.195c-0.001-0.022-0.003-0.044-0.007-0.067c-0.004-0.025-0.007-0.051-0.008-0.076
		c-0.004-0.102,0.02-0.204,0.071-0.295c0.038-0.068,0.092-0.131,0.161-0.182c0.097-0.072,0.215-0.107,0.332-0.107
		c0.123,0,0.246,0.039,0.346,0.117c0.18,0.14,0.249,0.359,0.208,0.56c0.037-0.008,0.075-0.011,0.113-0.011
		c0.167,0,0.333,0.073,0.447,0.22c0.019,0.024,0.036,0.05,0.05,0.077c0.043,0.08,0.066,0.17,0.067,0.26
		c0.002,0.12-0.034,0.241-0.107,0.341c-0.093,0.126-0.223,0.2-0.361,0.223c-0.032,0.005-0.064,0.009-0.096,0.009
		c-0.032,0-0.064-0.003-0.096-0.008c-0.03-0.005-0.061-0.008-0.091-0.008c-0.037,0-0.073,0.004-0.109,0.011
		c-0.107,0.022-0.207,0.076-0.287,0.155L315.796,24.466L315.796,24.466z M312.946,23.216c-0.106-0.106-0.248-0.166-0.395-0.166
		c-0.03,0-0.061,0.003-0.091,0.008c-0.032,0.005-0.064,0.008-0.096,0.008c-0.171,0-0.342-0.077-0.457-0.233
		c-0.147-0.2-0.142-0.482,0.01-0.678c0.114-0.147,0.281-0.22,0.447-0.22c0.038,0,0.075,0.004,0.113,0.011
		c-0.041-0.201,0.029-0.42,0.208-0.56c0.1-0.078,0.223-0.117,0.346-0.117c0.117,0,0.234,0.036,0.332,0.107
		c0.184,0.136,0.259,0.352,0.224,0.553c-0.031,0.178,0.031,0.359,0.158,0.486l1.184,1.184l-0.799,0.799L312.946,23.216z
		 M318.076,26.777c-0.114,0.147-0.281,0.22-0.447,0.22c-0.038,0-0.075-0.004-0.113-0.011c0.041,0.201-0.029,0.42-0.208,0.56
		c-0.1,0.078-0.223,0.117-0.346,0.117c-0.117,0-0.234-0.036-0.332-0.107c-0.184-0.136-0.259-0.352-0.224-0.553
		c0.031-0.178-0.031-0.359-0.158-0.486l-1.184-1.184l0.799-0.799l1.184,1.184c0.106,0.106,0.248,0.166,0.395,0.166
		c0.03,0,0.061-0.003,0.091-0.008c0.032-0.005,0.064-0.008,0.096-0.008c0.171,0,0.342,0.077,0.457,0.233
		C318.233,26.299,318.228,26.581,318.076,26.777z"/>
</g>
</svg>
