<?xml version="1.0" encoding="utf-8"?>
<!-- Generator: Adobe Illustrator 17.0.0, SVG Export Plug-In . SVG Version: 6.00 Build 0)  -->
<!DOCTYPE svg PUBLIC "-//W3C//DTD SVG 1.1//EN" "http://www.w3.org/Graphics/SVG/1.1/DTD/svg11.dtd">
<svg version="1.1" id="Icons" xmlns="http://www.w3.org/2000/svg" xmlns:xlink="http://www.w3.org/1999/xlink" x="0px" y="0px"
	  width="50px" height="50px" viewBox="364.142 -56.215 202.94 662.591"
	 enable-background="new 364.142 -56.215 202.94 662.591" xml:space="preserve">
<path fill="#E5E2AC" d="M512.618,467.346c0.02,14.857,7.06,29.118,19.239,37.64c13.818,9.69,22.088,26.699,19.308,45.42
	c-3.072,20.301-19.835,36.526-40.187,39.129c-18.713,2.366-35.571-6.384-44.95-20.525c-9.338,14.167-26.231,22.908-44.891,20.652
	c-20.418-2.485-37.169-18.722-40.297-39.014c-2.835-18.712,5.388-35.745,19.18-45.475c12.213-8.616,19.153-22.839,19.131-37.695
	l-0.547-386.035c-0.02-14.857-7.06-29.118-19.239-37.64c-13.818-9.69-22.088-26.699-19.308-45.42
	c3.072-20.301,19.835-36.526,40.187-39.129c18.713-2.366,35.571,6.384,44.95,20.525c9.338-14.167,26.231-22.908,44.891-20.652
	c20.418,2.485,37.169,18.722,40.297,39.014c2.835,18.712-5.388,35.745-19.18,45.475c-12.213,8.616-19.153,22.839-19.131,37.695"/>
<path d="M512.662-55.654c-17.195-2.117-33.926,2.788-46.858,13.133c-13.095-10.536-29.82-15.342-46.843-13.189
	c-27.492,3.376-49.556,24.829-53.784,52.199c-3.054,20.001,3.369,39.542,17.456,53.646c2.514,2.517,5.261,4.799,8.125,6.848
	c1.287,0.937,2.572,1.99,3.741,3.16c5.612,5.619,8.881,13.574,8.819,21.822l-0.078,130.668l15.676,0.017l0.079-130.791
	c0.008-12.399-4.781-24.217-13.374-32.821c-1.754-1.756-3.742-3.395-5.788-4.858c-2.164-1.581-4.209-3.278-6.08-5.151
	c-9.995-10.007-15.486-24.517-13.078-40.366c2.995-20.177,19.792-36.369,40.148-38.93c15.268-1.92,29.302,3.586,39.004,13.3
	c2.221,2.224,4.151,4.624,5.962,7.257c9.368-14.148,26.275-22.854,44.933-20.561c10.411,1.293,19.883,6.211,27.073,13.411
	c6.84,6.848,11.572,15.8,13.145,25.685c2.796,18.718-5.461,35.734-19.271,45.435c-12.23,8.59-19.198,22.8-19.208,37.656
	l-0.078,128.995c0.121,0.612,0.199,1.225,0.245,1.84l15.37,0.017L528.079,82.1c0.006-10.06,4.69-19.416,12.591-24.967
	c19.428-13.674,29.208-36.89,25.713-60.522c-1.923-12.811-8.173-25.039-17.526-34.403C539.037-47.625,526.173-53.95,512.662-55.654z
	"/>
<path d="M506.121,228.314"/>
<path d="M418.849,228.261"/>
<path d="M403.24,212.633"/>
<path d="M403.112,347.673"/>
<path d="M512.257,200.943l0.031,267.183c-0.008,12.399,4.781,24.217,13.374,32.82c1.754,1.756,3.742,3.395,5.788,4.858
	c2.164,1.581,4.209,3.278,6.08,5.151c9.995,10.007,15.486,24.517,13.078,40.366c-3.112,20.294-19.909,36.486-40.265,39.047
	c-15.268,1.92-29.302-3.586-39.004-13.3c-2.221-2.224-4.151-4.624-5.962-7.257c-9.368,14.148-26.275,22.854-44.933,20.561
	c-10.411-1.293-19.883-6.211-27.073-13.411c-6.84-6.848-11.572-15.8-13.145-25.685c-2.796-18.718,5.461-35.734,19.271-45.435
	c12.23-8.59,19.198-22.8,19.208-37.656l0.214-263.484l-15.676-0.017l-0.094,263.377c-0.006,10.06-4.69,19.416-12.591,24.967
	c-19.428,13.674-29.208,36.89-25.713,60.522c1.923,12.811,8.173,25.039,17.526,34.403c9.82,9.832,22.685,16.157,36.195,17.862
	c17.195,2.116,33.926-2.788,46.858-13.133c13.095,10.536,29.82,15.342,46.843,13.188c27.492-3.376,49.556-24.829,53.784-52.199
	c3.054-20.001-3.369-39.542-17.456-53.646c-2.514-2.517-5.261-4.799-8.125-6.848c-1.287-0.937-2.572-1.99-3.741-3.16
	c-5.612-5.619-8.881-13.574-8.819-21.822l0.22-262.495l-15.37-0.017"/>
</svg>
