<?xml version="1.0" encoding="utf-8"?>
<!-- Generator: Adobe Illustrator 17.0.0, SVG Export Plug-In . SVG Version: 6.00 Build 0)  -->
<!DOCTYPE svg PUBLIC "-//W3C//DTD SVG 1.1//EN" "http://www.w3.org/Graphics/SVG/1.1/DTD/svg11.dtd">
<svg version="1.1" id="Icons" xmlns="http://www.w3.org/2000/svg" xmlns:xlink="http://www.w3.org/1999/xlink" x="0px" y="0px"
	 viewBox="321.592 20.32 6.784 7.915" enable-background="new 321.592 20.32 6.784 7.915"
	 xml:space="preserve">
<g>
	<g>
		<path fill="#222222" d="M327.057,24.372c-0.104,0-0.188-0.084-0.188-0.188c0-0.104,0.084-0.188,0.188-0.188
			c0.416,0,0.754-0.338,0.754-0.754c0-0.637-0.457-0.876-0.941-1.128c-0.418-0.218-0.85-0.443-0.85-0.945
			c0-0.364,0.296-0.66,0.66-0.66c0.104,0,0.188,0.084,0.188,0.188c0,0.104-0.084,0.188-0.188,0.188
			c-0.156,0-0.283,0.127-0.283,0.283c0,0.261,0.246,0.402,0.647,0.611c0.509,0.266,1.143,0.596,1.143,1.462
			C328.187,23.865,327.68,24.372,327.057,24.372z"/>
	</g>
	<path fill="#222222" d="M326.114,24.421c0.341,0.238,0.565,0.634,0.565,1.082v1.884c0,0.208,0.169,0.377,0.377,0.377
		s0.377-0.169,0.377-0.377v-2.544c0-0.295-0.046-0.58-0.13-0.848h-1.19V24.421z"/>
	<path opacity="0.5" enable-background="new    " d="M326.114,24.421c0.341,0.238,0.565,0.634,0.565,1.082v1.884
		c0,0.208,0.169,0.377,0.377,0.377s0.377-0.169,0.377-0.377v-2.544c0-0.295-0.046-0.58-0.13-0.848h-1.19V24.421z"/>
	<path opacity="0.5" enable-background="new    " d="M327.809,23.203c0,0.013,0.002,0.025,0.002,0.038
		c0,0.416-0.338,0.754-0.754,0.754c-0.104,0-0.188,0.084-0.188,0.188c0,0.104,0.084,0.188,0.188,0.188
		c0.494,0,0.913-0.319,1.067-0.761C328.031,23.466,327.926,23.329,327.809,23.203z"/>
	<path fill="#222222" d="M325.361,22.299c-1.561,0-2.827,1.265-2.827,2.827v2.544c0,0.208,0.169,0.377,0.377,0.377
		s0.377-0.169,0.377-0.377v-1.413c0-0.208,0.169-0.377,0.377-0.377c0.208,0,0.377,0.169,0.377,0.377v1.413
		c0,0.208,0.169,0.377,0.377,0.377s0.377-0.169,0.377-0.377v-1.884c0-0.729,0.591-1.319,1.319-1.319s1.319,0.591,1.319,1.319v1.884
		c0,0.208,0.169,0.377,0.377,0.377c0.208,0,0.377-0.169,0.377-0.377v-2.544C328.187,23.565,326.922,22.299,325.361,22.299z"/>
	<path fill="#222222" d="M323.715,22.321c-0.2-0.132-0.445-0.21-0.71-0.21s-0.509,0.078-0.71,0.21l-0.515-0.304v1.225
		c0,0.624,0.548,1.131,1.225,1.131s1.225-0.506,1.225-1.131v-1.225L323.715,22.321z"/>
	<g>
		<path fill="#FFED00" d="M322.489,22.959c-0.132,0-0.25,0.049-0.332,0.125c0.062,0.146,0.226,0.252,0.422,0.252
			c0.132,0,0.25-0.049,0.332-0.125C322.849,23.064,322.685,22.959,322.489,22.959z"/>
		<path d="M322.534,23.335c0.029-0.057,0.047-0.12,0.047-0.188c0-0.068-0.018-0.132-0.047-0.188
			c-0.029,0.057-0.047,0.12-0.047,0.188C322.487,23.215,322.505,23.278,322.534,23.335z"/>
	</g>
	<g>
		<path fill="#FFED00" d="M323.521,22.959c0.132,0,0.25,0.049,0.332,0.125c-0.062,0.146-0.226,0.252-0.422,0.252
			c-0.132,0-0.25-0.049-0.332-0.125C323.161,23.064,323.326,22.959,323.521,22.959z"/>
		<path d="M323.476,23.335c-0.029-0.057-0.047-0.12-0.047-0.188c0-0.068,0.018-0.132,0.047-0.188
			c0.029,0.057,0.047,0.12,0.047,0.188C323.523,23.215,323.505,23.278,323.476,23.335z"/>
	</g>
	<g>
		<path d="M322.954,23.192c-0.071-0.168-0.258-0.281-0.465-0.281c-0.139,0-0.268,0.049-0.364,0.138
			c-0.015,0.013-0.019,0.034-0.011,0.053c0.071,0.168,0.258,0.281,0.465,0.281c0.139,0,0.268-0.049,0.364-0.138
			C322.957,23.231,322.962,23.21,322.954,23.192z M322.579,23.288c-0.157,0-0.298-0.076-0.363-0.192
			c0.075-0.058,0.172-0.09,0.274-0.09c0.157,0,0.298,0.076,0.363,0.192C322.778,23.256,322.68,23.288,322.579,23.288z"/>
		<path d="M323.431,23.383c0.208,0,0.395-0.113,0.465-0.281c0.008-0.018,0.003-0.039-0.011-0.053
			c-0.096-0.089-0.225-0.138-0.364-0.138c-0.208,0-0.395,0.113-0.465,0.281c-0.008,0.018-0.003,0.039,0.011,0.053
			C323.163,23.334,323.292,23.383,323.431,23.383z M323.521,23.006c0.101,0,0.199,0.033,0.274,0.09
			c-0.065,0.116-0.207,0.192-0.363,0.192c-0.101,0-0.199-0.033-0.274-0.09C323.223,23.082,323.364,23.006,323.521,23.006z"/>
		<path d="M328.376,23.241c0-0.98-0.719-1.355-1.245-1.629c-0.371-0.193-0.546-0.3-0.546-0.444c0-0.052,0.042-0.094,0.094-0.094
			c0.208,0,0.377-0.169,0.377-0.377s-0.169-0.377-0.377-0.377c-0.468,0-0.848,0.38-0.848,0.848c0,0.616,0.527,0.891,0.951,1.112
			c0.478,0.249,0.786,0.431,0.833,0.844c-0.568-0.642-1.383-1.014-2.255-1.014c-0.323,0-0.639,0.051-0.942,0.151v-0.245
			c0-0.068-0.036-0.13-0.095-0.164c-0.029-0.016-0.061-0.025-0.093-0.025c-0.033,0-0.066,0.009-0.096,0.026l-0.419,0.247
			c-0.216-0.118-0.459-0.179-0.71-0.179c-0.251,0-0.495,0.062-0.71,0.179l-0.419-0.247c-0.03-0.017-0.063-0.026-0.096-0.026
			c-0.032,0-0.064,0.008-0.093,0.025c-0.059,0.034-0.095,0.096-0.095,0.164v1.225c0,0.519,0.334,0.991,0.832,1.202
			c-0.052,0.224-0.078,0.452-0.078,0.682v2.544c0,0.312,0.254,0.565,0.565,0.565s0.565-0.254,0.565-0.565v-1.413
			c0-0.104,0.085-0.188,0.188-0.188c0.104,0,0.188,0.085,0.188,0.188v1.413c0,0.312,0.254,0.565,0.565,0.565
			s0.565-0.254,0.565-0.565v-1.884c0-0.62,0.502-1.125,1.12-1.131c0.247,0.216,0.387,0.522,0.387,0.848v1.884
			c0,0.312,0.254,0.565,0.565,0.565c0.085,0,0.165-0.019,0.238-0.052c0.088,0.197,0.287,0.335,0.516,0.335
			c0.312,0,0.565-0.254,0.565-0.565v-2.544c0-0.397-0.076-0.782-0.227-1.147C328.296,23.762,328.376,23.504,328.376,23.241z
			 M326.87,22.114c-0.418-0.218-0.85-0.443-0.85-0.945c0-0.364,0.296-0.66,0.66-0.66c0.104,0,0.188,0.084,0.188,0.188
			c0,0.104-0.084,0.188-0.188,0.188c-0.156,0-0.283,0.127-0.283,0.283c0,0.261,0.246,0.402,0.647,0.611
			c0.509,0.266,1.143,0.596,1.143,1.462c0,0.232-0.071,0.447-0.191,0.626c-0.023-0.047-0.046-0.095-0.072-0.142
			c-0.048-0.089-0.102-0.173-0.154-0.249c0.025-0.074,0.039-0.153,0.039-0.236C327.81,22.604,327.354,22.366,326.87,22.114z
			 M321.78,23.241v-1.225l0.515,0.304c0.2-0.132,0.445-0.21,0.71-0.21s0.509,0.078,0.71,0.21l0.515-0.304v0.287v0.231v0.706
			c0,0.624-0.548,1.131-1.225,1.131c-0.146,0-0.285-0.025-0.414-0.068v0C322.118,24.147,321.78,23.731,321.78,23.241z
			 M327.339,26.061c0,0.122,0,0.241,0,0.357c0,0.232,0,0.448,0,0.634c0,0.289,0,0.502,0,0.582c-0.069,0.079-0.169,0.13-0.283,0.13
			c-0.208,0-0.377-0.169-0.377-0.377v-1.884c0-0.363-0.149-0.69-0.386-0.928c0.019,0.003,0.039,0.006,0.061,0.009
			c0.029,0.006,0.061,0.015,0.095,0.024c0.067,0.019,0.142,0.046,0.218,0.085c0.077,0.038,0.155,0.09,0.232,0.152
			c0.073,0.066,0.149,0.138,0.21,0.227c0.062,0.087,0.117,0.185,0.154,0.292c0.041,0.105,0.063,0.219,0.071,0.334l0.004,0.086v0.092
			C327.339,25.938,327.339,26,327.339,26.061z M328.187,25.126v2.544c0,0.208-0.169,0.377-0.377,0.377
			c-0.208,0-0.377-0.169-0.377-0.377c0,0,0-0.106,0-0.283c0-0.094,0-0.207,0-0.335c0-0.185,0-0.402,0-0.634c0-0.116,0-0.236,0-0.357
			c-0.002-0.122,0.005-0.245-0.005-0.369c-0.009-0.123-0.033-0.246-0.077-0.359c-0.04-0.115-0.099-0.221-0.166-0.315
			c-0.065-0.096-0.147-0.174-0.226-0.245c-0.083-0.067-0.167-0.123-0.25-0.164c-0.083-0.042-0.163-0.072-0.235-0.092
			c-0.037-0.009-0.07-0.019-0.102-0.026c-0.032-0.005-0.062-0.009-0.089-0.013c-0.053-0.01-0.096-0.007-0.125-0.01
			c-0.029-0.002-0.044-0.002-0.044-0.002c-0.729,0-1.319,0.591-1.319,1.319v1.884c0,0.208-0.169,0.377-0.377,0.377
			s-0.377-0.169-0.377-0.377v-1.413c0-0.208-0.169-0.377-0.377-0.377c-0.208,0-0.377,0.169-0.377,0.377v1.413
			c0,0.208-0.169,0.377-0.377,0.377s-0.377-0.169-0.377-0.377v-2.544c0-0.247,0.034-0.485,0.093-0.713
			c0.12,0.034,0.246,0.054,0.378,0.054c0.727,0,1.319-0.549,1.319-1.225v-0.745c0.321-0.127,0.67-0.197,1.036-0.197
			c0.991,0,1.863,0.511,2.367,1.283c0,0,0,0,0,0c0.039,0.059,0.078,0.123,0.114,0.189c0.033,0.061,0.064,0.123,0.091,0.183l0,0
			C328.096,24.311,328.187,24.708,328.187,25.126z"/>
	</g>
</g>
</svg>
