<?xml version="1.0" encoding="utf-8"?>
<!-- Generator: Adobe Illustrator 17.0.0, SVG Export Plug-In . SVG Version: 6.00 Build 0)  -->
<!DOCTYPE svg PUBLIC "-//W3C//DTD SVG 1.1//EN" "http://www.w3.org/Graphics/SVG/1.1/DTD/svg11.dtd">
<svg version="1.1" id="Icons" xmlns="http://www.w3.org/2000/svg" xmlns:xlink="http://www.w3.org/1999/xlink" x="0px" y="0px"
	  viewBox="332.427 20.795 6.595 7.251" enable-background="new 332.427 20.795 6.595 7.251"
	 xml:space="preserve">
<g>
	<g>
		<path fill="#333333" d="M333.586,25.65l-0.243,2.103c-0.009,0.077,0.073,0.131,0.14,0.093l1.739-0.981
			c0.059-0.033,0.065-0.117,0.01-0.157l-1.496-1.122C333.678,25.542,333.595,25.578,333.586,25.65z"/>
		<path fill="#333333" d="M337.864,25.65l0.243,2.103c0.009,0.077-0.073,0.131-0.14,0.093l-1.739-0.981
			c-0.059-0.033-0.065-0.117-0.01-0.157l1.496-1.122C337.772,25.542,337.855,25.578,337.864,25.65z"/>
	</g>
	<path fill="#555555" d="M333.06,23.131c-0.282,0.468-0.444,1.016-0.444,1.602c0,1.717,1.392,3.109,3.109,3.109
		c1.717,0,3.109-1.392,3.109-3.109c0-0.586-0.162-1.134-0.444-1.602H333.06z"/>
	<g opacity="0.1">
		<path d="M338.39,23.131h-0.808c0.196,0.468,0.31,1.016,0.31,1.602c0,1.717-0.97,3.109-2.167,3.109
			c1.717,0,3.109-1.392,3.109-3.109C338.834,24.147,338.672,23.599,338.39,23.131z"/>
	</g>
	<ellipse fill="#555555" cx="335.725" cy="23.178" rx="3.109" ry="0.801"/>
	<path fill="#FFA500" d="M338.159,23.178c-0.4-0.153-1.241-0.33-2.434-0.33s-2.034,0.176-2.434,0.33
		c0.123,0.047,0.287,0.096,0.49,0.142c-0.079,0.069-0.129,0.169-0.129,0.282v0.471c0,0.123,0.089,0.235,0.211,0.248
		c0.141,0.014,0.26-0.096,0.26-0.234v-0.296c0-0.052,0.042-0.094,0.094-0.094c0.052,0,0.094,0.042,0.094,0.094v1.686
		c0,0.094,0.064,0.181,0.157,0.196c0.118,0.019,0.22-0.071,0.22-0.186v-1.602c0-0.208,0.169-0.377,0.377-0.377h0.565v-0.001
		c0.031,0,0.062,0.001,0.094,0.001C336.918,23.508,337.759,23.332,338.159,23.178z"/>
	<path fill="#A47D4B" d="M337.323,23.178l0.941-1.63c0.104-0.18,0.042-0.411-0.138-0.515l0,0c-0.18-0.104-0.411-0.042-0.515,0.138
		l-1.158,2.006H337.323z"/>
	<path d="M338.81,23.565c0.141-0.115,0.213-0.245,0.213-0.387c0-0.318-0.353-0.57-1.05-0.748l0.454-0.787
		c0.156-0.27,0.063-0.616-0.207-0.772c-0.086-0.05-0.184-0.076-0.282-0.076c-0.202,0-0.389,0.108-0.49,0.283l-0.669,1.158
		c-0.339-0.031-0.693-0.047-1.055-0.047c-1.141,0-3.298,0.207-3.298,0.989c0,0.142,0.072,0.272,0.213,0.387
		c-0.141,0.372-0.213,0.765-0.213,1.168c0,0.806,0.292,1.576,0.824,2.179l-0.094,0.819c-0.009,0.08,0.016,0.16,0.069,0.22
		c0.054,0.06,0.131,0.095,0.211,0.095c0.048,0,0.096-0.013,0.139-0.037l0.625-0.353c0.469,0.245,0.994,0.374,1.524,0.374
		c0.531,0,1.055-0.129,1.524-0.374l0.625,0.353c0.042,0.024,0.091,0.037,0.139,0.037c0.081,0,0.158-0.035,0.211-0.095
		c0.053-0.06,0.079-0.14,0.069-0.22l-0.095-0.819c0.532-0.603,0.824-1.373,0.824-2.179C339.023,24.33,338.951,23.938,338.81,23.565z
		 M338.621,23.47c-0.003,0.002-0.006,0.004-0.009,0.006c-0.032,0.021-0.066,0.04-0.101,0.058c-0.148,0.076-0.311,0.132-0.478,0.181
		c-0.168,0.048-0.341,0.086-0.515,0.118c-0.698,0.126-1.409,0.152-1.94,0.146c-0.266-0.003-0.487-0.015-0.641-0.025
		c-0.093-0.007-0.162-0.013-0.202-0.016v-0.052c0-0.182,0.148-0.33,0.33-0.33h0.565c0.003,0,0.006,0,0.009-0.001l0.086,0.001
		c1.168,0,2.031-0.172,2.451-0.333c0.018-0.007,0.03-0.024,0.03-0.044c0-0.02-0.012-0.037-0.03-0.044
		c-0.163-0.062-0.376-0.121-0.62-0.17l0.223-0.387c0.051,0.012,0.101,0.023,0.149,0.036c0.003,0.001,0.007,0.002,0.01,0.003
		c0.034,0.009,0.066,0.018,0.099,0.027c0.01,0.003,0.02,0.006,0.031,0.009c0.026,0.008,0.051,0.015,0.075,0.023
		c0.01,0.003,0.02,0.006,0.03,0.01c0.02,0.007,0.039,0.013,0.058,0.02c0.013,0.004,0.025,0.009,0.038,0.013
		c0.101,0.037,0.214,0.084,0.328,0.153c0.025,0.016,0.051,0.033,0.075,0.052c0.007,0.005,0.013,0.01,0.02,0.016
		c0.008,0.006,0.016,0.013,0.023,0.019c0.008,0.008,0.016,0.015,0.024,0.023c0.006,0.006,0.012,0.011,0.017,0.018
		c0.007,0.007,0.012,0.015,0.018,0.022c0.005,0.007,0.011,0.013,0.016,0.02c0.003,0.004,0.004,0.008,0.007,0.012
		c0.007,0.012,0.014,0.024,0.02,0.038c0,0.001,0.001,0.002,0.001,0.003c0.006,0.016,0.011,0.032,0.014,0.049
		c0,0.002,0,0.003,0.001,0.005c0.002,0.017,0.003,0.035,0.001,0.053c0,0,0,0.001,0,0.001c-0.002,0.018-0.006,0.036-0.013,0.053
		c0,0.001,0,0.002-0.001,0.002c-0.007,0.017-0.015,0.034-0.026,0.05c-0.001,0.001-0.002,0.002-0.002,0.003
		c-0.01,0.015-0.021,0.029-0.033,0.043c-0.001,0.001-0.002,0.002-0.003,0.004c-0.012,0.013-0.024,0.025-0.036,0.037
		c-0.002,0.002-0.004,0.004-0.006,0.005C338.683,23.426,338.653,23.449,338.621,23.47z M334.217,23.65
		c-0.078,0-0.141,0.063-0.141,0.141v0.296c0,0.053-0.023,0.104-0.062,0.14c-0.04,0.036-0.093,0.053-0.146,0.048
		c-0.095-0.01-0.169-0.098-0.169-0.201v-0.471c0-0.094,0.041-0.183,0.113-0.247c0.013-0.012,0.019-0.03,0.014-0.047
		c-0.004-0.017-0.018-0.03-0.035-0.034c-0.132-0.029-0.253-0.062-0.358-0.096c0.446-0.144,1.244-0.283,2.291-0.283
		c0.263,0,0.52,0.01,0.767,0.027l-0.121,0.209l-0.027,0.047h-0.104c-0.026,0-0.047,0.021-0.047,0.047
		c0,0.026,0.021,0.047,0.047,0.047h0.049h0.163h0.87h0.054h0.099c0.026,0,0.047-0.021,0.047-0.047c0-0.026-0.021-0.047-0.047-0.047
		h-0.045l0.074-0.128c0.223,0.044,0.391,0.089,0.511,0.128c-0.446,0.144-1.244,0.283-2.292,0.283l-0.094-0.001
		c-0.002,0-0.006,0-0.009,0.001h-0.556c-0.234,0-0.424,0.19-0.424,0.424v1.602c0,0.041-0.018,0.081-0.05,0.108
		c-0.032,0.027-0.073,0.039-0.116,0.032c-0.067-0.011-0.117-0.075-0.117-0.15v-1.686C334.359,23.713,334.295,23.65,334.217,23.65z
		 M334.265,23.885l-0.094-0.013v-0.081c0-0.026,0.021-0.047,0.047-0.047s0.047,0.021,0.047,0.047V23.885z M333.605,23.602v0.162
		c-0.04-0.01-0.105-0.026-0.192-0.051c-0.075-0.022-0.166-0.049-0.267-0.088c-0.099-0.039-0.211-0.086-0.32-0.158
		c-0.002-0.002-0.005-0.003-0.007-0.005c-0.025-0.017-0.05-0.036-0.074-0.056c-0.003-0.003-0.007-0.006-0.01-0.009
		c-0.024-0.022-0.047-0.046-0.067-0.073c-0.001-0.001-0.002-0.002-0.002-0.003c-0.009-0.012-0.016-0.025-0.023-0.038
		c-0.002-0.003-0.003-0.007-0.005-0.01c-0.014-0.032-0.023-0.067-0.022-0.103c0-0.002,0-0.003,0-0.005
		c0.001-0.018,0.004-0.035,0.01-0.053l0,0c0.011-0.037,0.031-0.07,0.056-0.1c0-0.001,0.001-0.001,0.001-0.002
		c0.025-0.03,0.054-0.057,0.085-0.081c0,0,0,0,0,0c0.031-0.025,0.065-0.047,0.1-0.068c0.001,0,0.002-0.001,0.003-0.001
		c0.035-0.021,0.07-0.04,0.108-0.057h0c0.148-0.07,0.307-0.125,0.472-0.17c0.01-0.003,0.021-0.006,0.031-0.008
		c0.033-0.009,0.066-0.017,0.1-0.026c0.005-0.001,0.01-0.003,0.015-0.004c0.127-0.031,0.256-0.056,0.385-0.08
		c0.261-0.045,0.524-0.077,0.779-0.098c0.004,0,0.007-0.001,0.011-0.001c0.083-0.007,0.164-0.013,0.245-0.017
		c0.003,0,0.007,0,0.01-0.001c0.265-0.016,0.515-0.021,0.741-0.02c0.087,0,0.174,0.001,0.259,0.003c0.001,0,0.001,0,0.002,0
		c0.197,0.005,0.388,0.015,0.573,0.029c0.012,0.001,0.024,0.002,0.036,0.003c0.048,0.004,0.095,0.008,0.141,0.013l-0.234,0.405
		c-0.263-0.019-0.538-0.03-0.82-0.03c-1.168,0-2.032,0.172-2.451,0.333c-0.018,0.007-0.03,0.024-0.03,0.044
		c0,0.02,0.012,0.037,0.03,0.044c0.114,0.044,0.257,0.087,0.417,0.125C333.636,23.421,333.605,23.51,333.605,23.602z
		 M337.938,20.984c0.048,0,0.096,0.009,0.143,0.028c0.015,0.006,0.031,0.014,0.045,0.022c0.068,0.039,0.119,0.096,0.15,0.161
		c0.019,0.04,0.031,0.083,0.035,0.127c0,0.004,0.002,0.008,0.002,0.012c0.005,0.072-0.011,0.147-0.05,0.215l-0.569,0.986
		l-0.372,0.644h-0.87l1.158-2.006C337.681,21.051,337.808,20.984,337.938,20.984z M333.483,27.846
		c-0.015,0.008-0.031,0.012-0.046,0.012c-0.053,0-0.101-0.046-0.094-0.105l0.091-0.785c0.199,0.204,0.425,0.381,0.672,0.527
		L333.483,27.846z M338.013,27.858c-0.015,0-0.031-0.004-0.046-0.012l-0.622-0.351c0.247-0.145,0.473-0.322,0.672-0.525l0.09,0.784
		C338.113,27.812,338.066,27.858,338.013,27.858z M338.101,26.737c-0.246,0.292-0.546,0.537-0.883,0.722
		c-0.041,0.023-0.083,0.045-0.125,0.066c-0.018,0.009-0.036,0.017-0.054,0.025c-0.399,0.187-0.844,0.292-1.314,0.292
		c-0.543,0-1.052-0.141-1.497-0.385c-0.314-0.173-0.595-0.398-0.831-0.665c-0.008-0.009-0.017-0.019-0.025-0.028
		c-0.031-0.036-0.061-0.072-0.091-0.11c-0.417-0.529-0.666-1.196-0.666-1.922c0-0.406,0.079-0.793,0.22-1.149
		c0.097,0.057,0.191,0.096,0.276,0.129c0.105,0.041,0.198,0.068,0.275,0.091c0.077,0.022,0.139,0.038,0.179,0.047
		c0.017,0.004,0.029,0.007,0.04,0.01v0.213c0,0.151,0.111,0.28,0.254,0.295c0.08,0.009,0.16-0.018,0.219-0.072
		c0.059-0.053,0.093-0.13,0.093-0.21v-0.12l0.094,0.013v1.496c0,0.12,0.084,0.224,0.196,0.242c0.013,0.002,0.026,0.003,0.039,0.003
		c0.056,0,0.11-0.02,0.153-0.056c0.053-0.045,0.083-0.11,0.083-0.179v-1.455c0.041,0.003,0.107,0.008,0.195,0.015
		c0.156,0.01,0.379,0.022,0.647,0.025c0.535,0.006,1.251-0.02,1.958-0.148c0.177-0.032,0.352-0.071,0.524-0.12
		c0.171-0.05,0.339-0.107,0.496-0.188c0.02-0.01,0.04-0.021,0.059-0.033c0.141,0.355,0.22,0.743,0.22,1.148
		C338.834,25.497,338.558,26.196,338.101,26.737z"/>
</g>
</svg>
