<?xml version="1.0" encoding="utf-8"?>
<!-- Generator: Adobe Illustrator 17.0.0, SVG Export Plug-In . SVG Version: 6.00 Build 0)  -->
<!DOCTYPE svg PUBLIC "-//W3C//DTD SVG 1.1//EN" "http://www.w3.org/Graphics/SVG/1.1/DTD/svg11.dtd">
<svg version="1.1" id="Icons" xmlns="http://www.w3.org/2000/svg" xmlns:xlink="http://www.w3.org/1999/xlink" x="0px" y="0px"
	 width="40" height="40" viewBox="322.817 10.05 5.559 10.27" enable-background="new 322.817 10.05 5.559 10.27"
	 xml:space="preserve">
<g>
	<polygon fill="#684A34" points="326.962,10.239 325.832,10.239 324.701,10.239 323.476,12.406 324.607,17.871 325.832,17.871 
		327.151,17.871 328.187,12.406 	"/>
	<polygon fill="#B38869" points="326.491,10.239 325.361,10.239 324.23,10.239 323.005,12.406 324.136,17.871 325.361,17.871 
		326.68,17.871 327.716,12.406 	"/>
	<polygon fill="#9B6E4E" points="324.443,17.494 323.403,12.468 324.45,10.616 326.271,10.616 327.32,12.471 326.368,17.494 	"/>
	<polygon fill="#684A34" points="326.303,12.312 325.643,12.312 325.643,11.652 325.078,11.652 325.078,12.312 324.418,12.312 
		324.418,12.877 325.078,12.877 325.078,14.102 325.643,14.102 325.643,12.877 326.303,12.877 	"/>
	<g>
		<path d="M325.69,12.264v-0.66h-0.66v0.66h-0.66v0.66h0.66v1.225h0.66v-1.225h0.66v-0.66H325.69z M326.256,12.83h-0.66v1.225
			h-0.471V12.83h-0.66v-0.471h0.66v-0.66h0.471v0.66h0.66V12.83z"/>
		<path d="M328.351,12.313l-1.225-2.167c-0.033-0.059-0.096-0.096-0.164-0.096h-2.732c-0.068,0-0.131,0.037-0.164,0.096
			l-1.225,2.167c-0.022,0.04-0.03,0.086-0.02,0.131l1.131,5.465c0.018,0.088,0.095,0.15,0.185,0.15h3.015
			c0.091,0,0.168-0.064,0.185-0.153l1.036-5.465C328.381,12.397,328.373,12.352,328.351,12.313z M324.174,17.824l-1.119-5.41
			l1.203-2.128h2.206l1.203,2.128l-1.026,5.41C326.641,17.824,324.174,17.824,324.174,17.824z M327.151,17.871h-0.423l1.038-5.473
			l-1.22-2.159h0.417l1.225,2.167L327.151,17.871z"/>
		<path d="M326.299,10.569h-1.877l-1.061,1.876l-0.009,0.015l1.043,5.043l0.008,0.038h2.002l0.963-5.078L326.299,10.569z
			 M326.329,17.447h-1.848l-1.028-4.971l1.025-1.813h1.766l1.027,1.817L326.329,17.447z"/>
	</g>
</g>
<g>
	<g>
		<path d="M326.68,20.32"/>
	</g>
</g>
</svg>
