<?xml version="1.0" encoding="utf-8"?>
<!-- Generator: Adobe Illustrator 17.0.0, SVG Export Plug-In . SVG Version: 6.00 Build 0)  -->
<!DOCTYPE svg PUBLIC "-//W3C//DTD SVG 1.1//EN" "http://www.w3.org/Graphics/SVG/1.1/DTD/svg11.dtd">
<svg version="1.1" id="Icons" xmlns="http://www.w3.org/2000/svg" xmlns:xlink="http://www.w3.org/1999/xlink" x="0px" y="0px"
	 viewBox="286.824 -7.192 35.616 42.211" enable-background="new 286.824 -7.192 35.616 42.211"
	 xml:space="preserve">
<g>
	<path fill="#EEEEEE" d="M290.489,31.116l2.306,2.583h0.098l2.306-2.583l2.306,2.583h0.098l2.306-2.583l2.304,2.583h0.098
		l2.306-2.583l2.304,2.583h0.098l2.306-2.583l2.305,2.583h0.098l2.307-2.583l2.304,2.583h0.098l2.307-2.583l2.308,2.583h0.067
		V10.615c0-9.106-7.382-16.489-16.489-16.489c-9.106,0-16.489,7.382-16.489,16.489v23.084h0.04L290.489,31.116z"/>
	<g>
		<circle fill="#333333" cx="299.355" cy="10.616" r="3.298"/>
		<circle fill="#333333" cx="309.908" cy="10.616" r="3.298"/>
	</g>
	<path opacity="0.05" enable-background="new    " d="M314.525,10.616v21.049l1.816,2.035h0.098l2.307-2.583l2.308,2.583h0.067
		V10.616c0-9.106-7.382-16.489-16.489-16.489C310.095-5.873,314.525,1.509,314.525,10.616z"/>
	<g>
		<path d="M304.632-7.192c-9.819,0-17.808,7.988-17.808,17.808V33.7c0,0.729,0.59,1.319,1.319,1.319h0.04
			c0.376,0,0.734-0.16,0.984-0.441l1.322-1.481l1.322,1.481c0.25,0.28,0.608,0.441,0.984,0.441h0.098
			c0.376,0,0.734-0.16,0.984-0.441l1.322-1.481l1.322,1.481c0.25,0.28,0.608,0.441,0.984,0.441h0.098
			c0.376,0,0.733-0.16,0.984-0.441l1.322-1.481l1.32,1.48c0.251,0.281,0.609,0.441,0.985,0.441h0.098
			c0.376,0,0.734-0.16,0.984-0.441l1.322-1.481l1.32,1.48c0.25,0.281,0.608,0.441,0.985,0.441h0.098c0.376,0,0.733-0.16,0.984-0.441
			l1.322-1.481l1.321,1.481c0.25,0.28,0.608,0.441,0.984,0.441h0.098c0.376,0,0.733-0.16,0.984-0.441l1.323-1.481l1.322,1.481
			c0.25,0.28,0.608,0.441,0.984,0.441h0.098c0.376,0,0.733-0.16,0.984-0.441l1.323-1.482l1.324,1.482
			c0.25,0.28,0.608,0.441,0.983,0.441h0.067c0.729,0,1.319-0.59,1.319-1.319V10.616C322.44,0.796,314.451-7.192,304.632-7.192z
			 M321.12,33.7h-0.067l-2.308-2.583l-2.307,2.583h-0.098l-2.306-2.583l-2.307,2.583h-0.098l-2.305-2.583l-2.306,2.583h-0.098
			l-2.304-2.583l-2.306,2.583h-0.098l-2.304-2.583l-2.306,2.583h-0.098l-2.306-2.583l-2.306,2.583h-0.098l-2.306-2.583l-2.306,2.583
			h-0.04V10.616c0-9.106,7.382-16.489,16.489-16.489s16.489,7.382,16.489,16.489L321.12,33.7L321.12,33.7z"/>
		<path d="M299.355,6.988c-2,0-3.628,1.627-3.628,3.628s1.628,3.628,3.628,3.628c2,0,3.628-1.627,3.628-3.628
			S301.355,6.988,299.355,6.988z M299.355,13.584c-1.636,0-2.968-1.332-2.968-2.968s1.332-2.968,2.968-2.968
			c1.636,0,2.968,1.332,2.968,2.968S300.991,13.584,299.355,13.584z"/>
		<path d="M309.908,6.988c-2,0-3.628,1.627-3.628,3.628s1.628,3.628,3.628,3.628c2,0,3.628-1.627,3.628-3.628
			S311.908,6.988,309.908,6.988z M309.908,13.584c-1.636,0-2.968-1.332-2.968-2.968s1.332-2.968,2.968-2.968
			c1.636,0,2.968,1.332,2.968,2.968S311.544,13.584,309.908,13.584z"/>
	</g>
</g>
</svg>
