<?xml version="1.0" encoding="utf-8"?>
<!-- Generator: Adobe Illustrator 17.0.0, SVG Export Plug-In . SVG Version: 6.00 Build 0)  -->
<!DOCTYPE svg PUBLIC "-//W3C//DTD SVG 1.1//EN" "http://www.w3.org/Graphics/SVG/1.1/DTD/svg11.dtd">
<svg version="1.1" id="Icons" xmlns="http://www.w3.org/2000/svg" xmlns:xlink="http://www.w3.org/1999/xlink" x="0px" y="0px"
	 viewBox="276.165 107.667 84 75" enable-background="new 276.165 107.667 84 75" xml:space="preserve">
<g>
	<ellipse fill="#3A0054" cx="318.167" cy="170.667" rx="40" ry="10"/>
	<path fill="#3A0054" d="M324.299,125.667l2.867-16l-15.133,16l-16.867,45c5.607,1.113,13.389,2,23,2s17.393-0.887,23-2
		L324.299,125.667z"/>
	<path fill="#F49100" d="M318.167,162.667c-7.715,0-14.227-0.575-19.406-1.377l-3.594,9.377c5.607,1.113,13.389,2,23,2
		s17.393-0.887,23-2l-3.594-9.377C332.393,162.092,325.882,162.667,318.167,162.667z"/>
	<rect x="310.167" y="161.667" fill="#F49100" width="16" height="12"/>
	<g>
		<path fill="#F8BA00" d="M325.167,162.667v9.917h-14v-9.917L325.167,162.667 M325.167,160.667h-14c-1.105,0-2,0.895-2,2v9.917
			c0,1.105,0.895,2,2,2h14c1.105,0,2-0.895,2-2v-9.917C327.167,161.562,326.271,160.667,325.167,160.667L325.167,160.667z"/>
	</g>
	<path opacity="0.2" enable-background="new    " d="M337.829,161.96L324.3,125.667l2.867-16l-9,17v48l5.891,5.891
		c19.297-0.712,34.109-4.869,34.109-9.891C358.167,166.931,349.967,163.676,337.829,161.96z"/>
	<g>
		<path d="M339.366,160.165l-13.001-34.686l2.751-15.356c0.034-0.146,0.052-0.299,0.052-0.456c0-1.095-0.878-1.985-1.97-2
			c-0.011,0-0.021,0-0.032,0c-0.031,0-0.062,0.001-0.093,0.002c-0.408,0.019-0.784,0.159-1.093,0.387
			c-0.082,0.061-0.161,0.128-0.234,0.202c-0.013,0.013-0.026,0.026-0.039,0.04l-15.129,15.995c-0.183,0.194-0.326,0.422-0.42,0.672
			l-13.193,35.2c-8.28,1.274-20.8,4.237-20.8,10.502c0,3.785,4.451,6.817,13.231,9.011c7.709,1.927,17.926,2.989,28.769,2.989
			s21.06-1.061,28.769-2.989c8.779-2.195,13.231-5.227,13.231-9.011C360.167,164.402,347.646,161.439,339.366,160.165z
			 M328.132,162.324c3.159-0.222,6.31-0.551,9.44-1.034l0,0l0.001,0.002l3.594,9.374l0,0h-0.002
			c-4.289,0.844-8.639,1.349-12.998,1.656v-9.655C328.167,162.549,328.145,162.438,328.132,162.324z M312.033,125.667l15.133-16
			l-2.867,16l12.989,34.654c-3.126,0.478-6.281,0.805-9.444,1.022c-0.491-0.989-1.501-1.676-2.678-1.676h-14
			c-1.177,0-2.188,0.688-2.679,1.677c-3.167-0.217-6.317-0.546-9.443-1.024L312.033,125.667z M327.167,162.667v9.917
			c0,1.105-0.895,2-2,2h-14c-1.105,0-2-0.895-2-2v-9.917c0-1.105,0.895-2,2-2h14C326.271,160.667,327.167,161.562,327.167,162.667z
			 M308.167,162.667v9.658c-4.36-0.308-8.71-0.813-13-1.658l0,0v-0.001l3.594-9.376l0,0h0.001c3.129,0.483,6.281,0.813,9.439,1.035
			C308.188,162.439,308.167,162.549,308.167,162.667z M318.167,180.667c-22.091,0-40-4.477-40-10c0-3.616,7.696-6.778,19.2-8.534
			l-3.134,8.175v0.001c-0.019,0.051-0.037,0.111-0.048,0.166c-0.107,0.541,0.246,1.066,0.787,1.173
			c4.404,0.867,8.849,1.38,13.302,1.688c0.336,1.289,1.5,2.247,2.893,2.247h14c1.393,0,2.557-0.959,2.893-2.249
			c2.165-0.149,4.343-0.347,6.505-0.612c2.273-0.279,4.54-0.629,6.795-1.074h0.002c0.054-0.011,0.118-0.029,0.171-0.049
			c0.513-0.199,0.767-0.777,0.568-1.289l-3.134-8.176c11.504,1.756,19.2,4.917,19.2,8.534
			C358.167,176.189,340.258,180.667,318.167,180.667z"/>
		<path d="M311.167,172.584h14v-9.917h-14V172.584z M312.167,163.667h12v7.917h-12V163.667z"/>
	</g>
</g>
</svg>
