<?xml version="1.0" encoding="utf-8"?>
<!-- Generator: Adobe Illustrator 17.0.0, SVG Export Plug-In . SVG Version: 6.00 Build 0)  -->
<!DOCTYPE svg PUBLIC "-//W3C//DTD SVG 1.1//EN" "http://www.w3.org/Graphics/SVG/1.1/DTD/svg11.dtd">
<svg version="1.1" id="Icons" xmlns="http://www.w3.org/2000/svg" xmlns:xlink="http://www.w3.org/1999/xlink" x="0px" y="0px"
	width="40" height="40" viewBox="290.31 21.932 7.915 5.549" enable-background="new 290.31 21.932 7.915 5.549"
	 xml:space="preserve">
<g>
	<path fill="#008B00" d="M293.985,23.053h0.565c0-0.208,0.085-0.396,0.221-0.533l-0.4-0.4
		C294.133,22.359,293.985,22.689,293.985,23.053z"/>
	<path fill="#FB8700" d="M295.681,22.582c-0.53,0-1.02,0.175-1.413,0.471c-0.394-0.296-0.883-0.471-1.413-0.471
		c-1.301,0-2.356,1.055-2.356,2.356s1.055,2.356,2.356,2.356c0.53,0,2.296,0,2.827,0c1.301,0,2.356-1.055,2.356-2.356
		C298.037,23.636,296.982,22.582,295.681,22.582z"/>
	<g opacity="0.1">
		<path d="M295.681,22.582c-0.16,0-0.315,0.018-0.466,0.048c1.073,0.22,1.88,1.169,1.88,2.307c0,1.301-1.055,2.356-2.356,2.356
			c0.398,0,0.751,0,0.942,0c1.301,0,2.356-1.055,2.356-2.356C298.037,23.636,296.982,22.582,295.681,22.582z"/>
	</g>
	<g>
		<path fill="#333333" d="M292.832,24.843h0.798c0.073,0,0.118-0.08,0.081-0.143l-0.399-0.665c-0.037-0.061-0.125-0.061-0.162,0
			l-0.399,0.665C292.714,24.763,292.759,24.843,292.832,24.843z"/>
		<path fill="#333333" d="M295.223,24.035l-0.399,0.665c-0.038,0.063,0.008,0.143,0.081,0.143h0.798c0.073,0,0.118-0.08,0.081-0.143
			l-0.399-0.665C295.348,23.974,295.26,23.974,295.223,24.035z"/>
		<path fill="#333333" d="M294.187,24.978l-0.116,0.194c-0.038,0.063,0.008,0.143,0.081,0.143h0.233c0.073,0,0.118-0.08,0.081-0.143
			l-0.116-0.194C294.312,24.917,294.223,24.917,294.187,24.978z"/>
	</g>
	<path fill="#333333" d="M295.304,25.597v0.377h-0.471v-0.377h-1.131v0.377h-0.471v-0.377h-1.036c0,0.677,0.548,1.225,1.225,1.225
		h0.377v-0.377h0.471v0.377h0.848c0.677,0,1.225-0.548,1.225-1.225H295.304z"/>
	<g>
		<path d="M295.681,22.393c-0.245,0-0.489,0.036-0.723,0.105c-0.005-0.042-0.024-0.081-0.054-0.111l-0.4-0.4
			c-0.037-0.037-0.085-0.055-0.133-0.055s-0.096,0.018-0.133,0.055c-0.172,0.172-0.3,0.385-0.372,0.617
			c-0.319-0.139-0.664-0.211-1.012-0.211c-1.403,0-2.544,1.141-2.544,2.544c0,1.403,1.141,2.544,2.544,2.544h2.827
			c1.403,0,2.544-1.141,2.544-2.544C298.225,23.534,297.084,22.393,295.681,22.393z M294.372,22.12l0.4,0.4
			c-0.089,0.089-0.155,0.201-0.19,0.325c-0.106,0.016-0.21,0.04-0.312,0.071c-0.088-0.027-0.177-0.048-0.267-0.063
			C294.046,22.569,294.178,22.314,294.372,22.12z M290.499,24.937c0-1.301,1.055-2.356,2.356-2.356c0.385,0,0.748,0.095,1.069,0.259
			c-0.462-0.063-0.945,0.016-1.359,0.231l0,0h0c-0.751,0.396-1.218,1.173-1.218,2.029c0,1.035,0.685,1.912,1.62,2.192
			c-0.042,0-0.08,0-0.112,0C291.553,27.293,290.499,26.238,290.499,24.937z M295.681,27.293c-0.08,0-0.189,0-0.317,0
			c0.673-0.196,1.242-0.649,1.545-1.263c0.012-0.023,0.002-0.052-0.021-0.063c-0.023-0.011-0.051-0.002-0.063,0.021
			c-0.359,0.729-1.111,1.222-1.958,1.305c-0.401,0-0.863,0-1.258,0c-1.195,0-2.167-0.983-2.167-2.192
			c0-0.821,0.447-1.566,1.167-1.945c0.456-0.237,1-0.3,1.5-0.184c-0.109,0.042-0.215,0.092-0.316,0.151
			c-0.023,0.013-0.03,0.042-0.017,0.064c0.013,0.022,0.042,0.03,0.064,0.017c0.121-0.071,0.249-0.129,0.381-0.174v0.188
			c0,0.026,0.021,0.047,0.047,0.047c0.026,0,0.047-0.021,0.047-0.047v-0.186c0.268,0.092,0.513,0.233,0.727,0.422
			c0.009,0.008,0.02,0.012,0.031,0.012c0.013,0,0.026-0.005,0.035-0.016c0.017-0.02,0.015-0.049-0.004-0.067
			c-0.201-0.178-0.428-0.315-0.676-0.412c0.163-0.039,0.331-0.059,0.5-0.059c0.391,0,0.774,0.105,1.108,0.304
			c0.008,0.005,0.016,0.007,0.024,0.007c0.016,0,0.032-0.008,0.041-0.023c0.013-0.022,0.006-0.051-0.016-0.065
			c-0.349-0.208-0.749-0.318-1.156-0.318c-0.107,0-0.213,0.008-0.318,0.023c0.322-0.165,0.686-0.259,1.072-0.259
			c1.301,0,2.356,1.055,2.356,2.356C298.037,26.238,296.982,27.293,295.681,27.293z"/>
		<path d="M292.81,24.843h0.798c0.073,0,0.118-0.08,0.081-0.143l-0.399-0.665c-0.018-0.031-0.05-0.046-0.081-0.046
			s-0.062,0.015-0.081,0.046l-0.399,0.665C292.692,24.763,292.737,24.843,292.81,24.843z M293.209,24.084
			C293.209,24.084,293.209,24.084,293.209,24.084l0.399,0.665h-0.798L293.209,24.084z"/>
		<path d="M294.883,24.843h0.798c0.073,0,0.118-0.08,0.081-0.143l-0.399-0.665c-0.018-0.031-0.05-0.046-0.081-0.046
			s-0.062,0.015-0.081,0.046l-0.399,0.665C294.764,24.763,294.81,24.843,294.883,24.843z M295.282,24.084
			C295.282,24.084,295.282,24.084,295.282,24.084l0.399,0.665h-0.798L295.282,24.084z"/>
		<path d="M294.129,25.314h0.233c0.073,0,0.118-0.08,0.081-0.143l-0.116-0.194c-0.018-0.031-0.05-0.046-0.081-0.046
			s-0.062,0.015-0.081,0.046l-0.116,0.194C294.011,25.234,294.056,25.314,294.129,25.314z M294.245,25.026
			C294.245,25.026,294.245,25.026,294.245,25.026l0.117,0.194h-0.233L294.245,25.026z"/>
		<path d="M295.304,25.974h-0.471v-0.377h-1.131v0.377h-0.471v-0.377h-1.036c0,0.677,0.548,1.225,1.225,1.225h0.377v-0.377h0.471
			v0.377h0.848c0.677,0,1.225-0.548,1.225-1.225h-1.036V25.974z M295.398,25.974v-0.283h0.844c-0.048,0.58-0.535,1.036-1.127,1.036
			h-0.754v-0.283c0-0.052-0.042-0.094-0.094-0.094h-0.471c-0.052,0-0.094,0.042-0.094,0.094v0.283h-0.283
			c-0.592,0-1.079-0.457-1.127-1.036h0.844v0.283c0,0.052,0.042,0.094,0.094,0.094h0.471c0.052,0,0.094-0.042,0.094-0.094v-0.283
			h0.942v0.283c0,0.052,0.042,0.094,0.094,0.094h0.471C295.356,26.068,295.398,26.026,295.398,25.974z"/>
	</g>
</g>
</svg>
