<?xml version="1.0" encoding="utf-8"?>
<!-- Generator: Adobe Illustrator 17.0.0, SVG Export Plug-In . SVG Version: 6.00 Build 0)  -->
<!DOCTYPE svg PUBLIC "-//W3C//DTD SVG 1.1//EN" "http://www.w3.org/Graphics/SVG/1.1/DTD/svg11.dtd">
<svg version="1.1" id="Icons" xmlns="http://www.w3.org/2000/svg" xmlns:xlink="http://www.w3.org/1999/xlink" x="0px" y="0px"
	 viewBox="332.521 10.427 6.407 6.972" enable-background="new 332.521 10.427 6.407 6.972"
	 xml:space="preserve">
<g>
	<path fill="#E5E2AC" d="M338.834,13.631c0-1.717-1.392-3.109-3.109-3.109c-1.717,0-3.109,1.392-3.109,3.109
		c0,1.009,0.481,1.905,1.225,2.473v0.731c0,0.26,0.211,0.471,0.471,0.471c0.26,0,0.471-0.211,0.471-0.471
		c0,0.26,0.211,0.471,0.471,0.471c0.26,0,0.471-0.211,0.471-0.471c0,0.26,0.211,0.471,0.471,0.471s0.471-0.211,0.471-0.471
		c0,0.26,0.211,0.471,0.471,0.471c0.26,0,0.471-0.211,0.471-0.471v-0.731C338.354,15.535,338.834,14.639,338.834,13.631z"/>
	<g>
		<circle fill="#333333" cx="334.689" cy="14.196" r="0.754"/>
		<circle fill="#333333" cx="336.761" cy="14.196" r="0.754"/>
	</g>
	<path fill="#333333" d="M335.725,15.892l0.241,0.096c0.08,0.032,0.158-0.052,0.119-0.13l-0.276-0.552
		c-0.035-0.069-0.134-0.069-0.169,0l-0.276,0.552c-0.039,0.077,0.039,0.162,0.119,0.13L335.725,15.892z"/>
	<path opacity="0.1" enable-background="new    " d="M335.725,10.521c1.197,0,2.167,1.392,2.167,3.109
		c0,0.942-0.292,1.785-0.753,2.356h0v0V16.4v0.481v0.424c0.26,0,0.471-0.211,0.471-0.471v-0.731v-0.002
		c0.744-0.568,1.225-1.462,1.225-2.47C338.834,11.913,337.442,10.521,335.725,10.521z"/>
	<g>
		<path d="M335.725,10.427c-1.766,0-3.204,1.437-3.204,3.204c0,0.991,0.446,1.907,1.225,2.519v0.685
			c0,0.312,0.254,0.565,0.565,0.565c0.196,0,0.37-0.101,0.471-0.253c0.101,0.152,0.275,0.253,0.471,0.253
			c0.196,0,0.37-0.101,0.471-0.253c0.101,0.152,0.275,0.253,0.471,0.253s0.37-0.101,0.471-0.253
			c0.101,0.152,0.275,0.253,0.471,0.253c0.312,0,0.565-0.254,0.565-0.565V16.15c0.779-0.612,1.225-1.528,1.225-2.519
			C338.928,11.864,337.491,10.427,335.725,10.427z M337.552,16.028c-0.023,0.018-0.037,0.046-0.037,0.075v0.731
			c0,0.208-0.169,0.377-0.377,0.377c-0.208,0-0.377-0.169-0.377-0.377c0-0.052-0.042-0.094-0.094-0.094
			c-0.052,0-0.094,0.042-0.094,0.094c0,0.208-0.169,0.377-0.377,0.377s-0.377-0.169-0.377-0.377c0-0.052-0.042-0.094-0.094-0.094
			s-0.094,0.042-0.094,0.094c0,0.208-0.169,0.377-0.377,0.377s-0.377-0.169-0.377-0.377c0-0.052-0.042-0.094-0.094-0.094
			c-0.052,0-0.094,0.042-0.094,0.094c0,0.208-0.169,0.377-0.377,0.377s-0.377-0.169-0.377-0.377v-0.731
			c0-0.029-0.014-0.057-0.037-0.075c-0.755-0.576-1.188-1.45-1.188-2.398c0-1.088,0.579-2.042,1.445-2.573l0.782,0.348l0.181,0.362
			c0.008,0.016,0.025,0.026,0.042,0.026c0.007,0,0.014-0.002,0.021-0.005c0.023-0.012,0.033-0.04,0.021-0.063l-0.188-0.377
			c-0.005-0.01-0.013-0.018-0.023-0.022l-0.268-0.119l0.445-0.074c0.026-0.004,0.043-0.029,0.039-0.054
			c-0.004-0.026-0.029-0.043-0.054-0.039l-0.565,0.094c-0.006,0.001-0.01,0.003-0.015,0.006L334.255,11
			c0.435-0.244,0.936-0.384,1.47-0.384c1.663,0,3.015,1.353,3.015,3.015C338.74,14.578,338.307,15.452,337.552,16.028z"/>
		<path d="M334.689,13.395c-0.442,0-0.801,0.359-0.801,0.801s0.359,0.801,0.801,0.801s0.801-0.359,0.801-0.801
			S335.13,13.395,334.689,13.395z M334.689,14.903c-0.39,0-0.707-0.317-0.707-0.707c0-0.39,0.317-0.707,0.707-0.707
			s0.707,0.317,0.707,0.707C335.395,14.586,335.078,14.903,334.689,14.903z"/>
		<path d="M336.761,13.395c-0.442,0-0.801,0.359-0.801,0.801s0.359,0.801,0.801,0.801s0.801-0.359,0.801-0.801
			S337.203,13.395,336.761,13.395z M336.761,14.903c-0.39,0-0.707-0.317-0.707-0.707c0-0.39,0.317-0.707,0.707-0.707
			c0.39,0,0.707,0.317,0.707,0.707C337.468,14.586,337.151,14.903,336.761,14.903z"/>
		<path d="M335.851,15.286c-0.024-0.048-0.073-0.078-0.126-0.078s-0.102,0.03-0.126,0.078l-0.276,0.552
			c-0.022,0.044-0.02,0.095,0.006,0.137c0.026,0.042,0.072,0.068,0.12,0.068c0.018,0,0.036-0.003,0.053-0.01l0.223-0.089
			l0.223,0.089c0.017,0.007,0.035,0.01,0.053,0.01c0.048,0,0.094-0.026,0.12-0.068c0.026-0.042,0.028-0.093,0.006-0.137
			L335.851,15.286z M336.041,15.925c-0.012,0.02-0.036,0.028-0.058,0.02l-0.258-0.103l-0.258,0.103
			c-0.006,0.002-0.012,0.004-0.018,0.004c-0.016,0-0.031-0.009-0.04-0.023c-0.005-0.008-0.012-0.025-0.002-0.045l0.276-0.552
			c0.016-0.033,0.068-0.033,0.084,0l0.276,0.552C336.053,15.9,336.046,15.917,336.041,15.925z"/>
	</g>
</g>
</svg>
