<?xml version="1.0" encoding="utf-8"?>
<!-- Generator: Adobe Illustrator 17.0.0, SVG Export Plug-In . SVG Version: 6.00 Build 0)  -->
<!DOCTYPE svg PUBLIC "-//W3C//DTD SVG 1.1//EN" "http://www.w3.org/Graphics/SVG/1.1/DTD/svg11.dtd">
<svg version="1.1" id="Icons" xmlns="http://www.w3.org/2000/svg" xmlns:xlink="http://www.w3.org/1999/xlink" x="0px" y="0px" preserveAspectRatio="none"
	 width="539.928px" height="560px" viewBox="479.146 -12.291 539.928 560" enable-background="new 479.146 -12.291 539.928 560"
	 xml:space="preserve">
<g>
	<rect x="573.981" y="483.104" fill="#555555" width="430.768" height="50.258"/>
	<path fill="#555555" d="M789.359,102.594c-99.122,0-179.49,80.356-179.49,179.49v251.279h358.968v-251.29
		C968.849,182.939,888.482,102.594,789.359,102.594z"/>
	<path fill="#008B00" d="M509.365,533.362l-15.24-35.563c-2.438-5.693,2.993-11.593,8.872-9.645l27.91,9.307l-4.191-46.111
		c-0.697-7.685,9.557-10.918,13.378-4.213l12.344,21.608l7.184-28.737c1.829-7.304,12.224-7.228,13.955,0.098l21.945,93.244h-86.158
		V533.362z"/>
	<polygon fill="#777777" points="810.901,37.978 775.001,37.978 775.001,2.078 746.286,2.078 746.286,37.978 710.385,37.978 
		710.385,66.694 746.286,66.694 746.286,109.767 775.001,109.767 775.001,66.694 810.901,66.694 	"/>
	<path fill="#777777" d="M760.643,102.594c-99.122,0-179.49,80.356-179.49,179.49v251.279h358.968v-251.29
		C940.133,182.939,859.766,102.594,760.643,102.594z"/>
	<rect x="545.254" y="483.104" fill="#777777" width="430.768" height="50.258"/>
	<g>
		<path d="M1004.738,468.746h-21.542V282.072c0-106.884-86.953-193.847-193.848-193.847v-7.184h21.542
			c7.935,0,14.358-6.422,14.358-14.358V37.967c0-7.935-6.422-14.358-14.358-14.358h-21.542V2.067
			c0-7.935-6.422-14.358-14.358-14.358h-28.716c-7.936,0-14.358,6.422-14.358,14.358v21.542h-21.542
			c-7.936,0-14.358,6.422-14.358,14.358v28.716c0,7.935,6.422,14.358,14.358,14.358h21.542v9.351
			c-93.615,13.999-165.132,95.737-165.132,191.67v138.136h-0.218c-8.926,0-16.546,5.171-19.855,13.15
			c-3.614-2.721-8.044-4.224-12.769-4.224c-6.128,0-11.996,2.58-16.1,7.076c-4.082,4.463-6.009,10.298-5.454,16.437l2.199,24.253
			l-7.075-2.362c-2.231-0.751-4.539-1.121-6.858-1.121c-7.228,0-13.944,3.636-17.961,9.721c-3.984,6.041-4.659,13.639-1.796,20.323
			l15.24,35.563c2.264,5.279,7.456,8.697,13.193,8.697h495.384c7.936,0,14.358-6.422,14.358-14.358v-50.258
			C1019.107,475.169,1012.674,468.746,1004.738,468.746z M968.849,282.072V475.92h-21.542V282.072
			c0-81.151-53.164-151.699-127.196-176.812C904.582,119.869,968.849,193.443,968.849,282.072z M581.154,472.328V282.072
			c0-94.289,72.725-171.543,165.132-178.858V66.694h-35.9V37.978h35.9v-35.9h28.716v35.9h35.9v28.716h-35.9v36.521
			c30.294,2.395,58.444,12.355,82.631,27.921c-0.011,0.25-0.076,0.501-0.033,0.762l6.629,39.808l-25.504,6.379
			c-1.927,0.479-3.091,2.438-2.612,4.354c0.414,1.633,1.861,2.721,3.472,2.721c0.283,0,0.577-0.033,0.871-0.109l25.929-6.488
			l5.889,11.778c0.631,1.252,1.894,1.981,3.211,1.981c0.534,0,1.089-0.12,1.6-0.381c1.774-0.893,2.493-3.048,1.611-4.822
			l-6.934-13.879l-6.107-36.651c45.087,32.591,74.456,85.57,74.456,145.462v193.847H581.144
			C581.154,475.909,581.154,472.328,581.154,472.328z M538.081,483.104v50.258h-28.716l-15.24-35.563
			c-2.112-4.931,1.676-10.025,6.553-10.025c0.751,0,1.535,0.12,2.319,0.381l27.91,9.307l-4.191-46.111
			c-0.435-4.79,3.385-7.848,7.26-7.848c2.329,0,4.692,1.11,6.128,3.636l12.344,21.608l7.184-28.737
			c0.904-3.636,3.93-5.443,6.967-5.443c3.07,0,6.128,1.851,6.988,5.541l0.403,1.709v34.104h-28.726h-7.184V483.104L538.081,483.104z
			 M976.022,533.362H545.254v-50.258h28.716h7.184h358.968h7.184h21.542h7.184v50.258H976.022z M1004.738,533.362h-21.542v-50.258
			h21.542V533.362z"/>
	</g>
</g>
</svg>
